<svg id="Layer_1" data-name="Layer 1" xmlns="http://www.w3.org/2000/svg" viewBox="0 0 380.28 222.96"><defs><style>.cls-1,.cls-3,.cls-7{fill:none;stroke-miterlimit:10;}.cls-1{stroke:gray;}.cls-1,.cls-3{stroke-width:4px;}.cls-2{font-size:19px;font-family:Myriad Pro;font-weight:700;}.cls-3{stroke:#333;}.cls-4{fill:#333;}.cls-5{fill:#fbd13b;}.cls-6{fill:#b3b3b3;}.cls-7{stroke:#fbd13b;stroke-width:6px;}</style></defs><title>diagram_os</title><rect class="cls-1" x="2" y="168" width="112.58" height="52.96"/><text class="cls-2" transform="translate(26.29 200.48)">S<tspan x="9.79" y="0">t</tspan><tspan x="16.34" y="0">o</tspan><tspan x="27.06" y="0">r</tspan><tspan x="33.65" y="0">age</tspan></text><rect class="cls-1" x="133.85" y="168" width="112.58" height="52.96"/><text class="cls-2" transform="translate(163.06 200.48)">E<tspan x="9.6" y="0">v</tspan><tspan x="19" y="0">e</tspan><tspan x="28.8" y="0">n</tspan><tspan x="39.58" y="0">ts</tspan></text><rect class="cls-1" x="265.7" y="168" width="112.58" height="52.96"/><text class="cls-2" transform="translate(306.8 200.48)">G<tspan x="12.81" y="0">as</tspan></text><line class="cls-3" x1="58.29" y1="139.15" x2="58.29" y2="150.97"/><polygon class="cls-4" points="53.3 149.51 58.29 158.15 63.28 149.51 53.3 149.51"/><line class="cls-3" x1="190.14" y1="139.15" x2="190.14" y2="150.97"/><polygon class="cls-4" points="185.15 149.51 190.14 158.15 195.13 149.51 185.15 149.51"/><line class="cls-3" x1="190.14" y1="54.96" x2="190.14" y2="66.79"/><polygon class="cls-4" points="185.15 65.33 190.14 73.96 195.13 65.33 185.15 65.33"/><line class="cls-3" x1="321.99" y1="139.15" x2="321.99" y2="150.97"/><polygon class="cls-4" points="317 149.51 321.99 158.15 326.98 149.51 317 149.51"/><circle class="cls-5" cx="148.85" cy="105.4" r="2.45"/><circle class="cls-5" cx="451.14" cy="276.75" r="1.83" transform="translate(-370.12 224.54) rotate(-45)"/><circle class="cls-5" cx="454.76" cy="273.56" r="1.57" transform="translate(-366.81 226.17) rotate(-45)"/><ellipse class="cls-6" cx="145.55" cy="116.86" rx="5.66" ry="2.75"/><ellipse class="cls-5" cx="147.19" cy="113.82" rx="6.52" ry="4.51"/><path d="M460.22,279a1.54,1.54,0,0,1-.39,1,4.25,4.25,0,0,1-2.1,1.16,13.34,13.34,0,0,1-3.6.44,13.61,13.61,0,0,1-5.28-1.29,12.76,12.76,0,0,1-1.83-1,3.74,3.74,0,0,1-.48-0.37l-0.09-.09h0l-0.1.06,0.11,0v0l-0.1.06,0.11,0-0.27.1h0.28a0.28,0.28,0,0,0,0-.1l-0.27.1h-0.57a0.64,0.64,0,0,0,.12.36,2.07,2.07,0,0,0,.43.43,9.16,9.16,0,0,0,1.31.83,15.17,15.17,0,0,0,6.64,1.86,12.22,12.22,0,0,0,4.85-.83,4.17,4.17,0,0,0,1.51-1.07,2.41,2.41,0,0,0,.59-1.57h-0.86Z" transform="translate(-306.57 -175.52)"/><path d="M460.22,279a3.6,3.6,0,0,1-.17,1,4.4,4.4,0,0,0-.2,1.21c0,2.94,0,9.16,0,9.16a1.79,1.79,0,0,1-.42,1.11,4.86,4.86,0,0,1-2.17,1.41,10.32,10.32,0,0,1-3.5.58,9.48,9.48,0,0,1-4.4-1,4,4,0,0,1-1.26-1,1.79,1.79,0,0,1-.42-1.11v-7.84a5.25,5.25,0,0,0-.36-1.72,18.49,18.49,0,0,0-.88-2l-0.19.09h0.21l0-.09-0.19.09h0.09l0.12,0v0h-0.12l0.12,0h0a1,1,0,0,1,.2-0.28,5.51,5.51,0,0,1,1-.77A10.37,10.37,0,0,1,449,277a11.7,11.7,0,0,1,4.73-.81,12.15,12.15,0,0,1,4.62.82,4.14,4.14,0,0,1,1.38.9,1.47,1.47,0,0,1,.45,1h0.86a2.33,2.33,0,0,0-.69-1.61,6.07,6.07,0,0,0-2.75-1.48,14.33,14.33,0,0,0-3.88-.5,12.51,12.51,0,0,0-5.09.89,10.56,10.56,0,0,0-2.07,1.24,4.51,4.51,0,0,0-.68.64,1.78,1.78,0,0,0-.22.33,0.89,0.89,0,0,0-.1.4,0.65,0.65,0,0,0,.07.29,17.7,17.7,0,0,1,.84,1.9,4.44,4.44,0,0,1,.31,1.44c0,3,0,7.84,0,7.84a2.64,2.64,0,0,0,.6,1.64,5.68,5.68,0,0,0,2.55,1.69,11.17,11.17,0,0,0,3.79.63,10.32,10.32,0,0,0,4.81-1.08,4.85,4.85,0,0,0,1.53-1.23,2.64,2.64,0,0,0,.6-1.64v-9.16a3.58,3.58,0,0,1,.17-1,4.41,4.41,0,0,0,.2-1.22h-0.86Z" transform="translate(-306.57 -175.52)"/><path d="M459.5,287.19h-0.43a1,1,0,0,1-.33.7,4.4,4.4,0,0,1-1.89,1,10.83,10.83,0,0,1-3.08.42,9.82,9.82,0,0,1-3.88-.71,3.44,3.44,0,0,1-1.09-.72,0.91,0.91,0,0,1,0-1.41,4.4,4.4,0,0,1,1.89-1,10.83,10.83,0,0,1,3.08-.42,9.82,9.82,0,0,1,3.88.71,3.44,3.44,0,0,1,1.09.72,1,1,0,0,1,.33.7h0.86a1.89,1.89,0,0,0-.57-1.29,5.2,5.2,0,0,0-2.27-1.25,11.68,11.68,0,0,0-3.33-.46,10.65,10.65,0,0,0-4.23.79,4.27,4.27,0,0,0-1.37.91,1.76,1.76,0,0,0,0,2.59,5.2,5.2,0,0,0,2.27,1.25,11.68,11.68,0,0,0,3.33.46,10.65,10.65,0,0,0,4.23-.79,4.27,4.27,0,0,0,1.37-.91,1.89,1.89,0,0,0,.57-1.29H459.5Z" transform="translate(-306.57 -175.52)"/><rect class="cls-7" x="9.85" y="84" width="360.58" height="52.96"/><text class="cls-2" transform="translate(159.9 116.48)">B<tspan x="11.04" y="0">ea</tspan><tspan x="30.49" y="0">k</tspan><tspan x="40.03" y="0">er</tspan><tspan x="56.6" y="0">OS</tspan></text><rect class="cls-3" x="19.85" y="2" width="340.58" height="52.96"/><text class="cls-2" transform="translate(128.05 34.48)">Sma<tspan x="35.62" y="0">r</tspan><tspan x="42.83" y="0">t </tspan><tspan x="53.43" y="0">C</tspan><tspan x="64.3" y="0">o</tspan><tspan x="75.01" y="0">n</tspan><tspan x="85.78" y="0">t</tspan><tspan x="92.45" y="0">r</tspan><tspan x="99.05" y="0">a</tspan><tspan x="108.7" y="0">c</tspan><tspan x="117.51" y="0">t</tspan></text></svg>