<?xml version="1.0" standalone="no"?>
<!DOCTYPE svg PUBLIC "-//W3C//DTD SVG 20010904//EN"
 "http://www.w3.org/TR/2001/REC-SVG-20010904/DTD/svg10.dtd">
<svg version="1.0" xmlns="http://www.w3.org/2000/svg"
 width="872.000000pt" height="872.000000pt" viewBox="0 0 872.000000 872.000000"
 preserveAspectRatio="xMidYMid meet">
<metadata>
Created by potrace 1.11, written by Peter Selinger 2001-2013
</metadata>
<g transform="translate(0.000000,872.000000) scale(0.100000,-0.100000)"
fill="#000000" stroke="none">
<path d="M639 8675 c-2 -2 -20 -6 -41 -9 -42 -7 -151 -45 -158 -57 -3 -4 -12
-9 -20 -11 -8 -2 -20 -7 -27 -13 -76 -60 -103 -84 -119 -107 -10 -15 -21 -25
-23 -22 -7 7 -89 -146 -103 -191 -19 -64 -19 -66 -23 -168 -3 -75 1 -114 16
-168 22 -81 66 -170 104 -214 14 -16 34 -39 44 -50 10 -11 72 -72 139 -135 68
-63 149 -140 180 -170 143 -136 361 -342 402 -381 69 -65 336 -317 400 -379
32 -30 122 -116 201 -191 79 -75 167 -157 194 -183 73 -70 151 -119 240 -151
68 -25 93 -29 184 -29 111 0 140 4 210 29 56 19 141 66 141 77 0 4 4 7 9 6 23
-7 171 160 171 191 0 6 4 11 8 11 9 0 50 110 60 161 11 60 7 222 -8 274 -19
69 -75 177 -109 214 -16 17 -27 31 -25 31 2 0 -28 30 -67 68 -40 37 -93 87
-119 112 -26 25 -114 108 -195 185 -82 77 -174 165 -205 195 -32 30 -111 105
-176 166 -66 62 -146 138 -180 170 -34 33 -125 120 -204 194 -78 74 -168 160
-200 190 -284 269 -302 284 -440 332 -48 17 -249 35 -261 23z"/>
<path d="M3519 8675 c-2 -2 -20 -6 -41 -9 -42 -7 -151 -45 -158 -57 -3 -4 -12
-9 -20 -11 -8 -2 -20 -7 -27 -13 -76 -60 -103 -84 -119 -107 -10 -15 -20 -25
-23 -22 -7 6 -68 -104 -91 -164 -18 -49 -32 -106 -33 -139 0 -7 -4 -13 -9 -13
-5 0 -7 -4 -3 -10 3 -5 8 -47 10 -92 5 -91 32 -182 79 -262 44 -76 33 -64 246
-266 90 -85 185 -175 211 -200 26 -25 107 -101 179 -170 73 -69 159 -150 190
-180 32 -30 122 -116 201 -190 78 -74 163 -155 189 -180 26 -25 112 -106 190
-180 79 -74 165 -155 190 -180 86 -82 154 -124 260 -161 76 -26 240 -34 305
-14 22 6 42 12 45 13 41 8 131 48 156 67 110 88 149 129 185 195 8 14 17 27
21 30 4 3 20 45 36 93 20 61 28 107 28 152 -1 36 3 65 7 65 5 0 5 5 1 11 -3 6
-8 28 -11 48 -5 49 -52 181 -75 210 -10 13 -18 27 -18 31 0 20 -103 122 -445
445 -76 72 -183 173 -238 225 -55 52 -115 109 -132 125 -18 17 -105 100 -195
185 -90 85 -180 171 -200 190 -86 81 -325 308 -359 340 -142 137 -257 189
-427 195 -56 2 -103 2 -105 0z"/>
<path d="M6431 8664 c-211 -44 -379 -202 -447 -417 -22 -72 -26 -231 -7 -304
19 -74 74 -190 107 -226 14 -16 26 -30 26 -31 0 -6 1477 -1481 1511 -1509 59
-49 102 -73 183 -102 69 -25 94 -29 185 -29 150 0 227 21 337 93 168 108 262
275 270 477 3 87 0 115 -22 190 -14 49 -29 91 -35 92 -5 2 -9 12 -9 23 0 10
-4 19 -8 19 -5 0 -14 10 -19 23 -6 12 -19 32 -30 45 -22 28 -1510 1517 -1548
1549 -21 19 -148 86 -165 89 -3 0 -25 6 -50 14 -62 18 -202 21 -279 4z"/>
<path d="M738 5645 c-2 -3 -33 -7 -68 -10 -82 -6 -97 -9 -146 -30 -21 -9 -39
-16 -39 -15 0 3 -41 -14 -45 -19 -3 -3 -21 -15 -40 -25 -19 -11 -41 -25 -48
-30 -27 -22 -112 -111 -112 -118 0 -4 -6 -13 -14 -20 -27 -28 -73 -132 -93
-209 -12 -51 -10 -222 4 -273 20 -70 76 -185 108 -221 15 -16 37 -41 49 -55
11 -14 50 -50 85 -80 36 -30 79 -68 96 -85 18 -16 60 -55 94 -85 74 -64 81
-71 192 -171 46 -42 111 -100 144 -129 33 -29 69 -62 81 -74 12 -11 43 -40 70
-63 70 -60 184 -161 275 -244 14 -13 59 -53 99 -89 41 -36 86 -76 100 -90 14
-14 57 -52 95 -85 39 -33 75 -65 80 -71 35 -39 189 -166 228 -189 85 -49 198
-81 302 -86 38 -1 120 11 170 26 33 10 63 18 68 17 4 -1 7 2 7 8 0 5 9 10 20
10 11 0 20 3 20 8 0 4 13 13 28 20 16 6 38 21 50 32 12 11 24 20 28 20 8 0 43
39 82 90 15 19 30 37 33 40 13 10 57 107 74 160 23 76 28 233 9 302 -8 29 -17
60 -19 69 -6 26 -57 124 -66 127 -5 2 -9 8 -9 13 0 11 -44 62 -89 103 -18 17
-52 49 -76 71 -23 22 -71 65 -106 95 -35 30 -73 64 -85 75 -12 11 -51 46 -85
77 -35 31 -76 66 -90 79 -14 13 -56 51 -93 84 -38 33 -87 77 -110 98 -22 22
-65 60 -94 85 -30 26 -71 63 -92 83 -22 20 -65 59 -97 86 -32 28 -70 62 -84
75 -14 12 -44 39 -65 58 -22 19 -82 73 -134 120 -52 47 -112 101 -134 120 -22
19 -53 48 -70 64 -17 15 -51 44 -75 65 -24 20 -54 45 -65 56 -46 45 -243 127
-280 117 -5 -2 -21 1 -37 7 -15 5 -29 8 -31 6z"/>
<path d="M3620 5643 c0 -4 -24 -8 -53 -9 -71 -1 -115 -8 -162 -28 -22 -9 -40
-17 -40 -16 0 3 -41 -14 -45 -19 -3 -3 -21 -15 -40 -25 -39 -22 -44 -26 -97
-76 -44 -41 -123 -152 -123 -172 0 -8 -4 -18 -9 -23 -22 -24 -56 -192 -52
-260 6 -111 65 -268 131 -349 22 -27 117 -116 235 -221 37 -33 77 -69 89 -80
12 -11 56 -49 96 -85 41 -36 81 -72 90 -80 9 -8 54 -49 100 -90 47 -41 94 -84
107 -95 42 -39 204 -184 263 -235 65 -57 188 -169 206 -187 12 -13 24 -23 26
-23 3 0 26 -19 51 -42 24 -24 60 -57 78 -73 94 -84 208 -185 238 -211 19 -16
39 -34 46 -40 47 -46 215 -113 295 -118 26 -2 53 -6 59 -10 6 -4 11 -3 11 3 0
7 8 7 24 1 13 -5 27 -6 30 -2 4 3 12 7 19 8 65 10 88 15 123 28 48 17 122 54
141 70 7 6 30 25 51 41 41 32 94 93 121 141 9 15 22 35 29 42 7 7 10 18 7 23
-4 5 -1 9 6 9 7 0 10 3 7 6 -4 3 0 22 9 42 21 52 24 66 28 174 2 64 -1 115
-11 154 -18 69 -73 194 -85 194 -5 0 -9 5 -9 10 0 17 -57 77 -154 165 -80 72
-182 163 -198 177 -25 21 -164 146 -194 173 -12 11 -50 45 -84 75 -34 30 -77
69 -95 85 -35 33 -94 86 -206 185 -40 36 -86 78 -103 93 -16 15 -50 45 -75 66
-25 22 -65 57 -87 78 -42 38 -161 146 -200 180 -63 54 -152 134 -202 180 -31
29 -63 53 -69 53 -7 0 -13 4 -13 9 0 9 -115 63 -170 79 -19 6 -54 13 -78 16
-24 3 -47 8 -53 11 -5 4 -9 3 -9 -2z"/>
<path d="M6400 5616 c-80 -23 -150 -58 -215 -108 -36 -28 -58 -52 -130 -143
-22 -26 -70 -142 -80 -191 -3 -16 -8 -50 -10 -77 -2 -26 -7 -52 -10 -57 -3 -6
-3 -10 2 -10 4 0 9 -26 10 -58 4 -106 76 -261 165 -352 19 -19 90 -87 157
-150 68 -63 144 -135 170 -160 75 -71 330 -311 371 -350 121 -114 310 -293
360 -340 101 -97 334 -316 370 -349 19 -17 49 -44 65 -59 17 -15 48 -36 70
-47 22 -11 42 -23 45 -26 15 -16 154 -51 216 -54 39 -2 75 -5 80 -6 5 -1 11 0
14 1 7 2 30 7 72 14 94 15 224 85 301 162 43 42 97 117 97 133 0 6 4 11 9 11
8 0 20 26 26 55 2 11 12 38 27 75 17 43 19 222 2 281 -8 30 -17 61 -19 69 -2
8 -4 16 -5 18 -2 1 -3 5 -4 10 -6 22 -51 102 -58 102 -4 0 -8 4 -8 10 0 20
-83 103 -414 415 -18 17 -94 89 -170 160 -76 72 -157 148 -179 169 -23 21
-107 101 -187 176 -80 76 -161 152 -180 170 -19 18 -100 94 -180 170 -138 131
-163 155 -243 226 -42 38 -155 96 -222 114 -84 23 -229 21 -315 -4z"/>
<path d="M676 2682 c-4 -4 -17 -7 -29 -8 -74 -2 -205 -54 -280 -111 -98 -73
-160 -153 -202 -258 -34 -87 -39 -116 -40 -235 0 -185 61 -309 228 -469 145
-138 182 -172 289 -273 65 -61 147 -138 182 -172 35 -33 120 -115 190 -181 70
-66 163 -154 206 -195 43 -41 107 -102 142 -135 35 -33 131 -124 213 -202 243
-230 266 -251 294 -273 33 -25 101 -70 106 -70 2 0 16 -5 32 -12 31 -12 28
-11 101 -32 77 -21 231 -15 315 13 36 12 92 39 126 59 58 35 171 136 171 153
0 4 6 14 14 21 21 21 62 106 81 168 24 78 28 231 8 311 -32 126 -92 219 -222
343 -29 28 -79 76 -111 106 -32 30 -126 120 -211 200 -84 80 -167 159 -184
175 -17 17 -93 89 -169 160 -76 72 -171 162 -211 200 -40 39 -128 122 -196
185 -67 63 -146 138 -175 165 -28 28 -85 82 -125 120 -92 87 -174 155 -187
155 -6 0 -12 4 -14 10 -7 20 -182 73 -249 75 -36 1 -71 5 -76 8 -6 4 -13 3
-17 -1z"/>
<path d="M3519 2675 c-2 -1 -20 -5 -39 -8 -19 -2 -52 -11 -72 -20 -20 -8 -39
-13 -42 -9 -3 3 -6 0 -6 -6 0 -7 -7 -12 -16 -12 -8 0 -35 -13 -59 -30 -24 -16
-49 -30 -55 -30 -6 0 -9 -3 -7 -7 3 -5 -9 -19 -26 -32 -35 -26 -103 -109 -114
-137 -3 -11 -9 -21 -13 -24 -19 -16 -73 -196 -64 -212 3 -5 0 -8 -6 -8 -6 0
-8 -4 -5 -10 3 -5 8 -46 10 -90 2 -44 9 -97 15 -118 18 -57 72 -172 82 -172 4
0 8 -6 8 -13 0 -7 10 -23 23 -34 12 -11 29 -29 38 -39 13 -16 235 -228 359
-344 21 -19 109 -102 196 -185 86 -82 172 -163 190 -180 30 -28 314 -298 395
-375 20 -19 86 -82 147 -140 62 -58 155 -147 209 -197 54 -51 103 -93 110 -93
7 0 13 -4 13 -9 0 -5 8 -11 18 -15 9 -3 24 -10 32 -15 99 -65 296 -87 434 -49
65 18 176 70 212 101 30 25 109 109 118 125 5 9 12 19 16 22 13 9 58 104 75
160 23 74 28 233 8 307 -17 68 -72 193 -84 193 -5 0 -9 6 -9 13 0 8 -12 25
-27 40 -16 14 -33 32 -39 39 -6 7 -80 78 -164 158 -84 80 -179 170 -210 200
-32 30 -118 111 -191 180 -72 69 -153 145 -179 170 -94 90 -359 341 -570 540
-79 74 -157 149 -174 165 -94 92 -191 152 -300 185 -35 11 -229 24 -237 15z"/>
<path d="M6489 2676 c-2 -2 -22 -6 -44 -9 -22 -2 -57 -11 -77 -20 -20 -8 -39
-13 -42 -9 -3 3 -6 0 -6 -6 0 -7 -7 -12 -16 -12 -18 0 -124 -72 -163 -110
-101 -98 -166 -238 -178 -380 -6 -73 -6 -72 1 -122 12 -92 52 -194 106 -273
42 -61 1552 -1568 1594 -1590 20 -11 36 -23 36 -27 0 -5 4 -8 9 -8 5 0 26 -8
47 -17 22 -9 44 -18 49 -19 6 -2 34 -10 64 -18 73 -20 237 -14 311 12 105 37
200 97 263 167 60 66 126 193 142 272 13 62 16 172 6 230 -10 63 -58 196 -73
201 -4 2 -8 10 -8 18 0 8 -4 14 -10 14 -5 0 -10 6 -10 14 0 15 -1498 1519
-1566 1572 -96 75 -211 116 -340 120 -51 2 -93 1 -95 0z"/>
</g>
</svg>
