<?xml version="1.0" encoding="UTF-8" standalone="no"?>
<svg
   xmlns:dc="http://purl.org/dc/elements/1.1/"
   xmlns:cc="http://creativecommons.org/ns#"
   xmlns:rdf="http://www.w3.org/1999/02/22-rdf-syntax-ns#"
   xmlns:svg="http://www.w3.org/2000/svg"
   xmlns="http://www.w3.org/2000/svg"
   xmlns:sodipodi="http://sodipodi.sourceforge.net/DTD/sodipodi-0.dtd"
   xmlns:inkscape="http://www.inkscape.org/namespaces/inkscape"
   version="1.1"
   viewBox="0 0 568.52234 311.99213"
   stroke-miterlimit="10"
   id="svg97"
   sodipodi:docname="Separation.svg"
   width="568.52234"
   height="311.99213"
   style="fill:none;stroke:none;stroke-linecap:square;stroke-miterlimit:10"
   inkscape:version="0.92.3 (2405546, 2018-03-11)">
  <metadata
     id="metadata103">
    <rdf:RDF>
      <cc:Work
         rdf:about="">
        <dc:format>image/svg+xml</dc:format>
        <dc:type
           rdf:resource="http://purl.org/dc/dcmitype/StillImage" />
        <dc:title></dc:title>
      </cc:Work>
    </rdf:RDF>
  </metadata>
  <defs
     id="defs101" />
  <sodipodi:namedview
     pagecolor="#ffffff"
     bordercolor="#666666"
     borderopacity="1"
     objecttolerance="10"
     gridtolerance="10"
     guidetolerance="10"
     inkscape:pageopacity="0"
     inkscape:pageshadow="2"
     inkscape:window-width="1920"
     inkscape:window-height="1001"
     id="namedview99"
     showgrid="false"
     fit-margin-top="0"
     fit-margin-left="0"
     fit-margin-right="0"
     fit-margin-bottom="0"
     inkscape:zoom="0.39333333"
     inkscape:cx="367.12992"
     inkscape:cy="42.89107"
     inkscape:window-x="-9"
     inkscape:window-y="-9"
     inkscape:window-maximized="1"
     inkscape:current-layer="g95" />
  <clipPath
     id="p.0">
    <path
       d="M 0,0 H 800 V 600 H 0 Z"
       id="path2"
       inkscape:connector-curvature="0"
       style="clip-rule:nonzero" />
  </clipPath>
  <g
     clip-path="url(#p.0)"
     id="g95"
     transform="translate(-32.87008,-30.89895)">
    <path
       d="M 34.37008,32.39895 H 253.99212 V 221.40682 H 34.37008 Z"
       id="path7"
       inkscape:connector-curvature="0"
       style="fill:#000000;fill-opacity:0;fill-rule:evenodd" />
    <path
       d="M 34.37008,32.39895 H 253.99212 V 221.40682 H 34.37008 Z"
       id="path9"
       inkscape:connector-curvature="0"
       style="fill-rule:evenodd;stroke:#000000;stroke-width:3;stroke-linecap:butt;stroke-linejoin:round" />
    <path
       d="M 44.760704,59.318947 V 45.959572 h 2.703125 v 5.9375 l 5.4375,-5.9375 h 3.625 l -5.015625,5.203125 5.296875,8.15625 h -3.484375 l -3.671875,-6.265625 -2.1875,2.234375 v 4.03125 z m 19.019821,-3.078125 2.546875,0.421875 q -0.484375,1.40625 -1.546875,2.140625 -1.0625,0.734375 -2.65625,0.734375 -2.515625,0 -3.734375,-1.65625 -0.953125,-1.3125 -0.953125,-3.328125 0,-2.40625 1.25,-3.765625 1.265625,-1.359375 3.1875,-1.359375 2.15625,0 3.40625,1.421875 1.25,1.421875 1.1875,4.375 h -6.40625 q 0.03125,1.140625 0.609375,1.78125 0.59375,0.625 1.484375,0.625 0.59375,0 1,-0.328125 0.421875,-0.328125 0.625,-1.0625 z m 0.15625,-2.59375 q -0.03125,-1.109375 -0.578125,-1.6875 -0.546875,-0.578125 -1.328125,-0.578125 -0.84375,0 -1.390625,0.609375 -0.546875,0.609375 -0.53125,1.65625 z m 7.078842,5.671875 h -2.5625 v -9.671875 h 2.375 v 1.375 q 0.609375,-0.984375 1.09375,-1.28125 0.484375,-0.3125 1.109375,-0.3125 0.875,0 1.6875,0.484375 l -0.796875,2.234375 q -0.640625,-0.421875 -1.203125,-0.421875 -0.53125,0 -0.90625,0.296875 -0.375,0.296875 -0.59375,1.078125 -0.203125,0.765625 -0.203125,3.234375 z m 13.604019,0 h -2.5625 v -4.9375 q 0,-1.5625 -0.171875,-2.015625 -0.15625,-0.46875 -0.53125,-0.71875 -0.359375,-0.265625 -0.875,-0.265625 -0.671875,0 -1.203125,0.375 -0.53125,0.359375 -0.734375,0.96875 -0.1875,0.59375 -0.1875,2.21875 v 4.375 h -2.546875 v -9.671875 h 2.375 v 1.421875 q 1.265625,-1.640625 3.1875,-1.640625 0.84375,0 1.546875,0.3125 0.703125,0.296875 1.0625,0.78125 0.359375,0.46875 0.5,1.078125 0.140625,0.59375 0.140625,1.703125 z m 8.192856,-3.078125 2.546875,0.421875 q -0.484375,1.40625 -1.546875,2.140625 -1.0625,0.734375 -2.65625,0.734375 -2.515625,0 -3.734375,-1.65625 -0.953125,-1.3125 -0.953125,-3.328125 0,-2.40625 1.25,-3.765625 1.265625,-1.359375 3.1875,-1.359375 2.15625,0 3.40625,1.421875 1.25,1.421875 1.1875,4.375 h -6.40625 q 0.03125,1.140625 0.609375,1.78125 0.59375,0.625 1.484375,0.625 0.59375,0 1,-0.328125 0.421875,-0.328125 0.625,-1.0625 z m 0.15625,-2.59375 q -0.03125,-1.109375 -0.578125,-1.6875 -0.546875,-0.578125 -1.328125,-0.578125 -0.84375,0 -1.390625,0.609375 -0.546875,0.609375 -0.53125,1.65625 z m 4.625717,5.671875 V 45.959572 h 2.562501 v 13.359375 z"
       id="path11"
       inkscape:connector-curvature="0"
       style="fill:#000000;fill-rule:nonzero" />
    <path
       d="M 50.125984,81.2336 H 579.00788 V 341.39107 H 50.125984 Z"
       id="path13"
       inkscape:connector-curvature="0"
       style="fill:#f3f3f3;fill-rule:evenodd" />
    <path
       d="M 50.125984,81.2336 H 579.00788 V 341.39107 H 50.125984 Z"
       id="path15"
       inkscape:connector-curvature="0"
       style="fill-rule:evenodd;stroke:#000000;stroke-width:3;stroke-linecap:butt;stroke-linejoin:round" />
    <path
       d="M 60.48536,108.15359 V 94.79422 h 4.328125 q 2.453125,0 3.203125,0.203125 1.140625,0.296875 1.921875,1.3125 0.78125,1 0.78125,2.59375 0,1.234375 -0.453125,2.078125 -0.453125,0.82812 -1.140625,1.3125 -0.6875,0.46875 -1.390625,0.625 -0.96875,0.20312 -2.796875,0.20312 H 63.17286 v 5.03125 z m 2.6875,-11.093745 v 3.781245 h 1.484375 q 1.59375,0 2.125,-0.20312 0.546875,-0.20313 0.84375,-0.65625 0.3125,-0.453125 0.3125,-1.03125 0,-0.734375 -0.4375,-1.203125 -0.421875,-0.484375 -1.078125,-0.59375 -0.484375,-0.09375 -1.9375,-0.09375 z m 12.193573,11.093745 h -2.5625 v -9.67187 h 2.375 v 1.375 q 0.609375,-0.984375 1.09375,-1.28125 0.484375,-0.3125 1.109375,-0.3125 0.875,0 1.6875,0.484375 l -0.796875,2.234375 q -0.640625,-0.42188 -1.203125,-0.42188 -0.53125,0 -0.90625,0.29688 -0.375,0.29687 -0.59375,1.07812 -0.203125,0.76563 -0.203125,3.23438 z m 4.213394,-4.96875 q 0,-1.28125 0.625,-2.46875 0.625,-1.20312 1.78125,-1.82812 1.15625,-0.625 2.578125,-0.625 2.1875,0 3.59375,1.421875 1.40625,1.421875 1.40625,3.609375 0,2.1875 -1.421875,3.64062 -1.421875,1.4375 -3.5625,1.4375 -1.328125,0 -2.546875,-0.59375 -1.203125,-0.60937 -1.828125,-1.76562 -0.625,-1.17188 -0.625,-2.82813 z m 2.625,0.125 q 0,1.45313 0.671875,2.21875 0.6875,0.75 1.6875,0.75 1,0 1.671875,-0.75 0.6875,-0.76562 0.6875,-2.23437 0,-1.42188 -0.6875,-2.1875 -0.671875,-0.76563 -1.671875,-0.76563 -1,0 -1.6875,0.76563 -0.671875,0.76562 -0.671875,2.20312 z m 17.802233,-1.96875 -2.531253,0.45313 q -0.125,-0.75 -0.578125,-1.125 -0.453125,-0.39063 -1.171875,-0.39063 -0.953125,0 -1.53125,0.65625 -0.5625,0.65625 -0.5625,2.20313 0,1.73437 0.578125,2.4375 0.578125,0.70312 1.546875,0.70312 0.734375,0 1.203125,-0.40625 0.46875,-0.42187 0.65625,-1.42187 l 2.515628,0.42187 q -0.390628,1.73438 -1.515628,2.625 -1.109375,0.875 -2.96875,0.875 -2.125,0 -3.390625,-1.32812 -1.25,-1.34375 -1.25,-3.71875 0,-2.39063 1.265625,-3.71875 1.265625,-1.34375 3.421875,-1.34375 1.765625,0 2.796875,0.765625 1.046875,0.75 1.515628,2.312495 z m 7.53196,3.73438 2.54688,0.42187 q -0.48438,1.40625 -1.54688,2.14063 -1.0625,0.73437 -2.65625,0.73437 -2.51562,0 -3.73437,-1.65625 -0.95313,-1.3125 -0.95313,-3.32812 0,-2.40625 1.25,-3.765625 1.26563,-1.359375 3.1875,-1.359375 2.15625,0 3.40625,1.421875 1.25,1.421875 1.1875,4.374995 h -6.40625 q 0.0312,1.14063 0.60938,1.78125 0.59375,0.625 1.48437,0.625 0.59375,0 1,-0.32812 0.42188,-0.32813 0.625,-1.0625 z m 0.15625,-2.59375 q -0.0312,-1.10938 -0.57812,-1.6875 -0.54688,-0.57813 -1.32813,-0.57813 -0.84375,0 -1.39062,0.60938 -0.54688,0.60937 -0.53125,1.65625 z m 13.50072,5.67187 h -2.39062 v -1.42187 q -0.59375,0.82812 -1.40625,1.23437 -0.79688,0.40625 -1.60938,0.40625 -1.67187,0 -2.85937,-1.34375 -1.1875,-1.34375 -1.1875,-3.75 0,-2.45312 1.15625,-3.73437 1.15625,-1.28125 2.92187,-1.28125 1.625,0 2.8125,1.34375 v -4.8125 h 2.5625 z m -6.84375,-5.04687 q 0,1.54687 0.4375,2.23437 0.60938,1.01563 1.71875,1.01563 0.89063,0 1.5,-0.75 0.625,-0.76563 0.625,-2.25 0,-1.67188 -0.60937,-2.40625 -0.59375,-0.73438 -1.53125,-0.73438 -0.90625,0 -1.53125,0.73438 -0.60938,0.71875 -0.60938,2.15625 z m 15.72411,5.04687 v -1.45312 q -0.53125,0.78125 -1.39062,1.23437 -0.85938,0.4375 -1.81251,0.4375 -0.96875,0 -1.75,-0.42187 -0.76562,-0.4375 -1.125,-1.20313 -0.34375,-0.78125 -0.34375,-2.14062 v -6.125 h 2.5625 v 4.4375 q 0,2.04687 0.14063,2.51562 0.14062,0.45313 0.51562,0.71875 0.375,0.26563 0.95313,0.26563 0.65625,0 1.17188,-0.35938 0.51562,-0.35937 0.70312,-0.89062 0.20313,-0.53125 0.20313,-2.60938 v -4.07812 h 2.54687 v 9.67187 z m 7.48973,0 h -2.5625 v -9.67187 h 2.375 v 1.375 q 0.60938,-0.984375 1.09375,-1.28125 0.48438,-0.3125 1.10938,-0.3125 0.875,0 1.6875,0.484375 l -0.79688,2.234375 q -0.64062,-0.42188 -1.20312,-0.42188 -0.53125,0 -0.90625,0.29688 -0.375,0.29687 -0.59375,1.07812 -0.20313,0.76563 -0.20313,3.23438 z m 10.4009,-3.07812 2.54687,0.42187 q -0.48437,1.40625 -1.54687,2.14063 -1.0625,0.73437 -2.65625,0.73437 -2.51563,0 -3.73438,-1.65625 -0.95312,-1.3125 -0.95312,-3.32812 0,-2.40625 1.25,-3.765625 1.26562,-1.359375 3.1875,-1.359375 2.15625,0 3.40625,1.421875 1.25,1.421875 1.1875,4.374995 h -6.40625 q 0.0312,1.14063 0.60937,1.78125 0.59375,0.625 1.48438,0.625 0.59375,0 1,-0.32812 0.42187,-0.32813 0.625,-1.0625 z m 0.15625,-2.59375 q -0.0312,-1.10938 -0.57813,-1.6875 -0.54687,-0.57813 -1.32812,-0.57813 -0.84375,0 -1.39063,0.60938 -0.54687,0.60937 -0.53125,1.65625 z m 12.82464,5.67187 V 97.059845 h -3.95312 V 94.79422 h 10.60937 v 2.265625 H 163.651 v 11.093745 z m 10.28661,-6.71875 -2.32812,-0.42187 q 0.40625,-1.40625 1.35937,-2.078125 0.95313,-0.671875 2.84375,-0.671875 1.70313,0 2.54688,0.40625 0.84375,0.40625 1.17187,1.03125 0.34375,0.625 0.34375,2.28125 l -0.0156,3 q 0,1.26562 0.10937,1.875 0.125,0.60937 0.46875,1.29687 h -2.53125 q -0.10937,-0.25 -0.25,-0.75 -0.0625,-0.23437 -0.0937,-0.3125 -0.65625,0.64063 -1.40625,0.96875 -0.73437,0.3125 -1.59375,0.3125 -1.48437,0 -2.34375,-0.8125 -0.85937,-0.8125 -0.85937,-2.04687 0,-0.82813 0.39062,-1.46875 0.39063,-0.64063 1.09375,-0.96875 0.70313,-0.34375 2.03125,-0.60938 1.79688,-0.32812 2.48438,-0.625 v -0.25 q 0,-0.75 -0.35938,-1.0625 -0.35937,-0.3125 -1.375,-0.3125 -0.6875,0 -1.07812,0.28125 -0.375,0.26563 -0.60938,0.9375 z m 3.42188,2.07813 q -0.48438,0.15625 -1.5625,0.39062 -1.0625,0.21875 -1.39063,0.4375 -0.5,0.35938 -0.5,0.90625 0,0.53125 0.40625,0.9375 0.40625,0.39063 1.01563,0.39063 0.70312,0 1.32812,-0.46875 0.46875,-0.34375 0.60938,-0.84375 0.0937,-0.32813 0.0937,-1.25 z m 4.93821,4.64062 V 94.79422 h 2.5625 v 4.8125 q 1.17188,-1.34375 2.79688,-1.34375 1.76562,0 2.92187,1.28125 1.15625,1.28125 1.15625,3.67187 0,2.48438 -1.1875,3.82813 -1.17187,1.32812 -2.85937,1.32812 -0.82813,0 -1.64063,-0.40625 -0.79687,-0.42187 -1.375,-1.23437 v 1.42187 z m 2.53125,-5.04687 q 0,1.5 0.48438,2.21875 0.65625,1.03125 1.76562,1.03125 0.84375,0 1.4375,-0.71875 0.59375,-0.73438 0.59375,-2.29688 0,-1.65625 -0.60937,-2.39062 -0.59375,-0.73438 -1.53125,-0.73438 -0.92188,0 -1.53125,0.71875 -0.60938,0.71875 -0.60938,2.17188 z m 8.97411,5.04687 V 94.79422 h 2.5625 v 13.35937 z m 10.77705,-3.07812 2.54688,0.42187 q -0.48438,1.40625 -1.54688,2.14063 -1.0625,0.73437 -2.65625,0.73437 -2.51562,0 -3.73437,-1.65625 -0.95313,-1.3125 -0.95313,-3.32812 0,-2.40625 1.25,-3.765625 1.26563,-1.359375 3.1875,-1.359375 2.15625,0 3.40625,1.421875 1.25,1.421875 1.1875,4.374995 h -6.40625 q 0.0312,1.14063 0.60938,1.78125 0.59375,0.625 1.48437,0.625 0.59375,0 1,-0.32812 0.42188,-0.32813 0.625,-1.0625 z m 0.15625,-2.59375 q -0.0312,-1.10938 -0.57812,-1.6875 -0.54688,-0.57813 -1.32813,-0.57813 -0.84375,0 -1.39062,0.60938 -0.54688,0.60937 -0.53125,1.65625 z"
       id="path17"
       inkscape:connector-curvature="0"
       style="fill:#000000;fill-rule:nonzero" />
    <path
       d="M 70.24672,128.88715 H 200.8924 v 59.52756 H 70.24672 Z"
       id="path19"
       inkscape:connector-curvature="0"
       style="fill:#ffffff;fill-rule:evenodd" />
    <path
       d="M 70.24672,128.88715 H 200.8924 v 59.52756 H 70.24672 Z"
       id="path21"
       inkscape:connector-curvature="0"
       style="fill-rule:evenodd;stroke:#000000;stroke-width:3;stroke-linecap:butt;stroke-linejoin:round" />
    <path
       d="m 80.418594,153.24715 v -11.45313 h 8.484375 v 1.9375 h -6.171875 v 2.53125 h 5.75 v 1.9375 h -5.75 v 3.10938 h 6.390625 v 1.9375 z m 18.203125,0 h -2.203125 v -4.23438 q 0,-1.34375 -0.140625,-1.73437 -0.140625,-0.40625 -0.453125,-0.625 -0.3125,-0.21875 -0.765625,-0.21875 -0.5625,0 -1.015625,0.3125 -0.453125,0.3125 -0.625,0.82812 -0.171875,0.51563 -0.171875,1.90625 v 3.76563 h -2.1875 v -8.29688 h 2.03125 v 1.21875 q 1.09375,-1.40625 2.734375,-1.40625 0.734375,0 1.328125,0.26563 0.609375,0.25 0.90625,0.65625 0.3125,0.40625 0.4375,0.92187 0.125,0.51563 0.125,1.48438 z m 6.023441,-8.29688 v 1.75 h -1.5 v 3.34375 q 0,1.01563 0.0469,1.1875 0.0469,0.15625 0.1875,0.26563 0.15625,0.10937 0.375,0.10937 0.3125,0 0.89063,-0.20312 l 0.1875,1.70312 q -0.76563,0.32813 -1.73438,0.32813 -0.59375,0 -1.07812,-0.20313 -0.46875,-0.20312 -0.70313,-0.51562 -0.21875,-0.3125 -0.29687,-0.85938 -0.0781,-0.375 -0.0781,-1.54687 v -3.60938 h -0.999999 v -1.75 h 0.999999 v -1.65625 l 2.20313,-1.28125 v 2.9375 z m 3.625,8.29688 h -2.1875 v -8.29688 h 2.03125 v 1.17188 q 0.53125,-0.82813 0.9375,-1.09375 0.42187,-0.26563 0.95312,-0.26563 0.75,0 1.45313,0.40625 l -0.6875,1.92188 q -0.54688,-0.35938 -1.03125,-0.35938 -0.45313,0 -0.78125,0.25 -0.3125,0.25 -0.5,0.92188 -0.1875,0.65625 -0.1875,2.78125 z m 3.08593,-8.29688 h 2.34375 l 1.98438,5.89063 1.9375,-5.89063 h 2.26562 l -2.92187,7.98438 -0.53125,1.45312 q -0.28125,0.71875 -0.54688,1.09375 -0.26562,0.39063 -0.60937,0.625 -0.32813,0.25 -0.82813,0.375 -0.5,0.14063 -1.125,0.14063 -0.625,0 -1.23437,-0.14063 l -0.20313,-1.71875 q 0.51563,0.10938 0.9375,0.10938 0.76563,0 1.125,-0.45313 0.375,-0.45312 0.5625,-1.14062 z"
       id="path23"
       inkscape:connector-curvature="0"
       style="fill:#000000;fill-rule:nonzero" />
    <path
       d="m 80.418594,172.24715 v -11.45313 h 3.703125 q 2.109375,0 2.75,0.17188 0.984375,0.25 1.640625,1.125 0.671875,0.85937 0.671875,2.21875 0,1.0625 -0.390625,1.78125 -0.375,0.71875 -0.96875,1.125 -0.578125,0.40625 -1.1875,0.54687 -0.828125,0.15625 -2.40625,0.15625 h -1.5 v 4.32813 z m 2.3125,-9.51563 v 3.25 h 1.265625 q 1.359375,0 1.8125,-0.17187 0.46875,-0.1875 0.734375,-0.5625 0.265625,-0.39063 0.265625,-0.90625 0,-0.625 -0.375,-1.03125 -0.359375,-0.40625 -0.921875,-0.5 -0.421875,-0.0781 -1.671875,-0.0781 z m 10.4375,9.51563 h -2.1875 v -8.29688 h 2.03125 v 1.17188 q 0.53125,-0.82813 0.9375,-1.09375 0.421875,-0.26563 0.953125,-0.26563 0.75,0 1.453125,0.40625 l -0.6875,1.92188 q -0.546875,-0.35938 -1.03125,-0.35938 -0.453125,0 -0.78125,0.25 -0.3125,0.25 -0.5,0.92188 -0.1875,0.65625 -0.1875,2.78125 z m 3.617187,-4.26563 q 0,-1.09375 0.53125,-2.10937 0.546875,-1.03125 1.53125,-1.5625 1,-0.54688 2.218749,-0.54688 1.875,0 3.07813,1.21875 1.20312,1.21875 1.20312,3.09375 0,1.875 -1.21875,3.125 -1.20312,1.23438 -3.04687,1.23438 -1.140629,0 -2.187504,-0.51563 -1.03125,-0.51562 -1.578125,-1.51562 -0.53125,-1 -0.53125,-2.42188 z m 2.25,0.10938 q 0,1.23437 0.578125,1.89062 0.593754,0.65625 1.453124,0.65625 0.85938,0 1.4375,-0.65625 0.59375,-0.65625 0.59375,-1.90625 0,-1.21875 -0.59375,-1.875 -0.57812,-0.65625 -1.4375,-0.65625 -0.85937,0 -1.453124,0.65625 -0.578125,0.65625 -0.578125,1.89063 z m 15.273439,-1.6875 -2.17188,0.39062 q -0.10937,-0.65625 -0.5,-0.98437 -0.375,-0.32813 -1,-0.32813 -0.8125,0 -1.3125,0.57813 -0.48437,0.5625 -0.48437,1.89062 0,1.46875 0.5,2.07813 0.5,0.60937 1.32812,0.60937 0.625,0 1.01563,-0.34375 0.40625,-0.35937 0.57812,-1.23437 l 2.15625,0.375 q -0.34375,1.48437 -1.29687,2.25 -0.95313,0.75 -2.54688,0.75 -1.82812,0 -2.90625,-1.14063 -1.07812,-1.15625 -1.07812,-3.1875 0,-2.0625 1.07812,-3.20312 1.09375,-1.14063 2.9375,-1.14063 1.51563,0 2.40625,0.65625 0.90625,0.64063 1.29688,1.98438 z m 6.46094,3.20312 2.1875,0.35938 q -0.42188,1.20312 -1.32813,1.84375 -0.90625,0.625 -2.28125,0.625 -2.15625,0 -3.20312,-1.42188 -0.8125,-1.125 -0.8125,-2.85937 0,-2.0625 1.07812,-3.21875 1.07813,-1.17188 2.71875,-1.17188 1.85938,0 2.92188,1.21875 1.07812,1.21875 1.03125,3.75 h -5.5 q 0.0156,0.96875 0.51562,1.51563 0.51563,0.54687 1.28125,0.54687 0.51563,0 0.85938,-0.28125 0.35937,-0.28125 0.53125,-0.90625 z m 0.125,-2.21875 q -0.0156,-0.95312 -0.48438,-1.45312 -0.46875,-0.5 -1.14062,-0.5 -0.71875,0 -1.1875,0.53125 -0.46875,0.51562 -0.46875,1.42187 z m 11.58593,4.85938 h -2.04687 v -1.21875 q -0.5,0.70312 -1.20313,1.0625 -0.6875,0.34375 -1.39062,0.34375 -1.42188,0 -2.45313,-1.15625 -1.01562,-1.15625 -1.01562,-3.21875 0,-2.10938 0.98437,-3.20313 1,-1.09375 2.51563,-1.09375 1.39062,0 2.40625,1.15625 v -4.125 h 2.20312 z m -5.85937,-4.32813 q 0,1.32813 0.35937,1.92188 0.53125,0.85937 1.48438,0.85937 0.76562,0 1.29687,-0.64062 0.53125,-0.65625 0.53125,-1.9375 0,-1.42188 -0.51562,-2.04688 -0.51563,-0.64062 -1.32813,-0.64062 -0.78125,0 -1.3125,0.625 -0.51562,0.625 -0.51562,1.85937 z m 13.47656,4.32813 v -1.25 q -0.45312,0.67187 -1.1875,1.0625 -0.73437,0.375 -1.5625,0.375 -0.82812,0 -1.5,-0.35938 -0.65625,-0.375 -0.95312,-1.03125 -0.29688,-0.67187 -0.29688,-1.84375 v -5.25 h 2.1875 v 3.8125 q 0,1.75 0.125,2.14063 0.125,0.39062 0.4375,0.625 0.32813,0.23437 0.8125,0.23437 0.5625,0 1,-0.3125 0.45313,-0.3125 0.60938,-0.76562 0.17187,-0.45313 0.17187,-2.23438 v -3.5 h 2.20313 v 8.29688 z m 6.41406,0 h -2.1875 v -8.29688 h 2.03125 v 1.17188 q 0.53125,-0.82813 0.9375,-1.09375 0.42188,-0.26563 0.95313,-0.26563 0.75,0 1.45312,0.40625 l -0.6875,1.92188 q -0.54687,-0.35938 -1.03125,-0.35938 -0.45312,0 -0.78125,0.25 -0.3125,0.25 -0.5,0.92188 -0.1875,0.65625 -0.1875,2.78125 z m 8.92969,-2.64063 2.1875,0.35938 q -0.42187,1.20312 -1.32812,1.84375 -0.90625,0.625 -2.28125,0.625 -2.15625,0 -3.20313,-1.42188 -0.8125,-1.125 -0.8125,-2.85937 0,-2.0625 1.07813,-3.21875 1.07812,-1.17188 2.71875,-1.17188 1.85937,0 2.92187,1.21875 1.07813,1.21875 1.03125,3.75 h -5.5 q 0.0156,0.96875 0.51563,1.51563 0.51562,0.54687 1.28125,0.54687 0.51562,0 0.85937,-0.28125 0.35938,-0.28125 0.53125,-0.90625 z m 0.125,-2.21875 q -0.0156,-0.95312 -0.48437,-1.45312 -0.46875,-0.5 -1.14063,-0.5 -0.71875,0 -1.1875,0.53125 -0.46875,0.51562 -0.46875,1.42187 z"
       id="path25"
       inkscape:connector-curvature="0"
       style="fill:#000000;fill-rule:nonzero" />
    <path
       d="m 200.8924,128.88715 h 202.11023 v 59.52756 H 200.8924 Z"
       id="path27"
       inkscape:connector-curvature="0"
       style="fill:#ffffff;fill-rule:evenodd" />
    <path
       d="m 200.8924,128.88715 h 202.11023 v 59.52756 H 200.8924 Z"
       id="path29"
       inkscape:connector-curvature="0"
       style="fill-rule:evenodd;stroke:#000000;stroke-width:3;stroke-linecap:butt;stroke-linejoin:round" />
    <path
       d="m 221.3924,153.24715 h -2.51563 l -1,-2.60938 h -4.57812 l -0.95313,2.60938 h -2.45312 l 4.46875,-11.45313 h 2.4375 z m -4.26563,-4.53125 -1.57812,-4.25 -1.54688,4.25 z m 5.47657,4.53125 v -11.45313 h 2.1875 v 11.45313 z m 4.44531,0 v -11.45313 h 2.1875 v 11.45313 z m 16.23437,-4.21875 2.23438,0.71875 q -0.51563,1.875 -1.71875,2.79687 -1.1875,0.90625 -3.03125,0.90625 -2.28125,0 -3.75,-1.5625 -1.46875,-1.5625 -1.46875,-4.26562 0,-2.85938 1.46875,-4.4375 1.48437,-1.59375 3.89062,-1.59375 2.09375,0 3.40625,1.25 0.78125,0.73437 1.17188,2.10937 l -2.28125,0.54688 q -0.20313,-0.89063 -0.85938,-1.40625 -0.64062,-0.51563 -1.5625,-0.51563 -1.26562,0 -2.0625,0.92188 -0.79687,0.90625 -0.79687,2.95312 0,2.17188 0.78125,3.09375 0.78125,0.92188 2.03125,0.92188 0.92187,0 1.57812,-0.57813 0.67188,-0.59375 0.96875,-1.85937 z m 5.85157,-1.54688 -2,-0.35937 q 0.34375,-1.20313 1.15625,-1.78125 0.82812,-0.57813 2.4375,-0.57813 1.46875,0 2.1875,0.34375 0.71875,0.34375 1.01562,0.89063 0.29688,0.53125 0.29688,1.95312 l -0.0312,2.5625 q 0,1.09375 0.10937,1.625 0.10938,0.51563 0.39063,1.10938 h -2.17188 q -0.0781,-0.21875 -0.20312,-0.65625 -0.0625,-0.1875 -0.0781,-0.25 -0.5625,0.54687 -1.20312,0.82812 -0.64063,0.26563 -1.375,0.26563 -1.28125,0 -2.01563,-0.6875 -0.73437,-0.70313 -0.73437,-1.76563 0,-0.70312 0.32812,-1.25 0.34375,-0.5625 0.9375,-0.84375 0.60938,-0.29687 1.75,-0.51562 1.54688,-0.29688 2.14063,-0.54688 v -0.21875 q 0,-0.625 -0.3125,-0.89062 -0.3125,-0.28125 -1.1875,-0.28125 -0.57813,0 -0.90625,0.23437 -0.32813,0.23438 -0.53125,0.8125 z m 2.9375,1.78125 q -0.42188,0.14063 -1.34375,0.34375 -0.90625,0.1875 -1.1875,0.375 -0.4375,0.29688 -0.4375,0.76563 0,0.46875 0.34375,0.8125 0.34375,0.32812 0.875,0.32812 0.59375,0 1.14062,-0.39062 0.39063,-0.29688 0.51563,-0.73438 0.0937,-0.28125 0.0937,-1.0625 z m 4.25781,-4.3125 h 2.04687 v 1.21875 q 0.39063,-0.625 1.0625,-1.01562 0.6875,-0.39063 1.51563,-0.39063 1.45312,0 2.45312,1.14063 1.01563,1.125 1.01563,3.14062 0,2.07813 -1.01563,3.23438 -1.01562,1.15625 -2.46875,1.15625 -0.6875,0 -1.25,-0.26563 -0.54687,-0.28125 -1.17187,-0.95312 v 4.1875 h -2.1875 z m 2.17187,4 q 0,1.40625 0.54688,2.07813 0.5625,0.65625 1.35937,0.65625 0.76563,0 1.26563,-0.60938 0.51562,-0.60937 0.51562,-2.01562 0,-1.29688 -0.53125,-1.92188 -0.51562,-0.64062 -1.29687,-0.64062 -0.79688,0 -1.32813,0.625 -0.53125,0.60937 -0.53125,1.82812 z m 9.30469,-1.46875 -2,-0.35937 q 0.34375,-1.20313 1.15625,-1.78125 0.82813,-0.57813 2.4375,-0.57813 1.46875,0 2.1875,0.34375 0.71875,0.34375 1.01563,0.89063 0.29687,0.53125 0.29687,1.95312 l -0.0312,2.5625 q 0,1.09375 0.10938,1.625 0.10937,0.51563 0.39062,1.10938 h -2.17187 q -0.0781,-0.21875 -0.20313,-0.65625 -0.0625,-0.1875 -0.0781,-0.25 -0.5625,0.54687 -1.20313,0.82812 -0.64062,0.26563 -1.375,0.26563 -1.28125,0 -2.01562,-0.6875 -0.73438,-0.70313 -0.73438,-1.76563 0,-0.70312 0.32813,-1.25 0.34375,-0.5625 0.9375,-0.84375 0.60937,-0.29687 1.75,-0.51562 1.54687,-0.29688 2.14062,-0.54688 v -0.21875 q 0,-0.625 -0.3125,-0.89062 -0.3125,-0.28125 -1.1875,-0.28125 -0.57812,0 -0.90625,0.23437 -0.32812,0.23438 -0.53125,0.8125 z m 2.9375,1.78125 q -0.42187,0.14063 -1.34375,0.34375 -0.90625,0.1875 -1.1875,0.375 -0.4375,0.29688 -0.4375,0.76563 0,0.46875 0.34375,0.8125 0.34375,0.32812 0.875,0.32812 0.59375,0 1.14063,-0.39062 0.39062,-0.29688 0.51562,-0.73438 0.0937,-0.28125 0.0937,-1.0625 z m 4.22656,3.98438 v -11.45313 h 2.1875 v 4.125 q 1.01563,-1.15625 2.40625,-1.15625 1.51563,0 2.5,1.09375 1,1.09375 1,3.15625 0,2.125 -1.01562,3.28125 -1,1.14063 -2.45313,1.14063 -0.70312,0 -1.40625,-0.35938 -0.6875,-0.35937 -1.1875,-1.04687 v 1.21875 z m 2.17188,-4.32813 q 0,1.28125 0.40625,1.90625 0.57812,0.875 1.51562,0.875 0.73438,0 1.23438,-0.625 0.51562,-0.625 0.51562,-1.95312 0,-1.42188 -0.51562,-2.04688 -0.51563,-0.64062 -1.3125,-0.64062 -0.79688,0 -1.32813,0.625 -0.51562,0.60937 -0.51562,1.85937 z m 7.69531,-5.09375 v -2.03125 h 2.1875 v 2.03125 z m 0,9.42188 v -8.29688 h 2.1875 v 8.29688 z m 4.44531,0 v -11.45313 h 2.1875 v 11.45313 z m 4.44532,-9.42188 v -2.03125 h 2.1875 v 2.03125 z m 0,9.42188 v -8.29688 h 2.1875 v 8.29688 z m 8.24218,-8.29688 v 1.75 h -1.5 v 3.34375 q 0,1.01563 0.0469,1.1875 0.0469,0.15625 0.1875,0.26563 0.15625,0.10937 0.375,0.10937 0.3125,0 0.89062,-0.20312 l 0.1875,1.70312 q -0.76562,0.32813 -1.73437,0.32813 -0.59375,0 -1.07813,-0.20313 -0.46875,-0.20312 -0.70312,-0.51562 -0.21875,-0.3125 -0.29688,-0.85938 -0.0781,-0.375 -0.0781,-1.54687 v -3.60938 h -1 v -1.75 h 1 v -1.65625 l 2.20312,-1.28125 v 2.9375 z m 1.53125,-1.125 v -2.03125 h 2.1875 v 2.03125 z m 0,9.42188 v -8.29688 h 2.1875 v 8.29688 z m 9.24219,-2.64063 2.1875,0.35938 q -0.42187,1.20312 -1.32812,1.84375 -0.90625,0.625 -2.28125,0.625 -2.15625,0 -3.20313,-1.42188 -0.8125,-1.125 -0.8125,-2.85937 0,-2.0625 1.07813,-3.21875 1.07812,-1.17188 2.71875,-1.17188 1.85937,0 2.92187,1.21875 1.07813,1.21875 1.03125,3.75 h -5.5 q 0.0156,0.96875 0.51563,1.51563 0.51562,0.54687 1.28125,0.54687 0.51562,0 0.85937,-0.28125 0.35938,-0.28125 0.53125,-0.90625 z m 0.125,-2.21875 q -0.0156,-0.95312 -0.48437,-1.45312 -0.46875,-0.5 -1.14063,-0.5 -0.71875,0 -1.1875,0.53125 -0.46875,0.51562 -0.46875,1.42187 z m 3.19531,2.48438 2.20313,-0.32813 q 0.14062,0.64063 0.5625,0.96875 0.4375,0.32813 1.21875,0.32813 0.84375,0 1.28125,-0.3125 0.28125,-0.21875 0.28125,-0.57813 0,-0.25 -0.15625,-0.42187 -0.15625,-0.15625 -0.73438,-0.28125 -2.65625,-0.59375 -3.35937,-1.07813 -0.98438,-0.67187 -0.98438,-1.85937 0,-1.07813 0.84375,-1.8125 0.85938,-0.73438 2.64063,-0.73438 1.70312,0 2.53125,0.5625 0.82812,0.54688 1.14062,1.625 l -2.0625,0.39063 q -0.14062,-0.48438 -0.51562,-0.73438 -0.35938,-0.26562 -1.04688,-0.26562 -0.875,0 -1.25,0.23437 -0.25,0.17188 -0.25,0.45313 0,0.23437 0.21875,0.39062 0.29688,0.21875 2.04688,0.625 1.76562,0.39063 2.45312,0.96875 0.6875,0.59375 0.6875,1.64063 0,1.14062 -0.95312,1.96875 -0.95313,0.8125 -2.8125,0.8125 -1.70313,0 -2.6875,-0.6875 -0.98438,-0.6875 -1.29688,-1.875 z"
       id="path31"
       inkscape:connector-curvature="0"
       style="fill:#000000;fill-rule:nonzero" />
    <path
       d="M 70.24672,198.25197 H 200.8924 v 59.52757 H 70.24672 Z"
       id="path33"
       inkscape:connector-curvature="0"
       style="fill:#f4cccc;fill-rule:evenodd" />
    <path
       d="M 70.24672,198.25197 H 200.8924 v 59.52757 H 70.24672 Z"
       id="path35"
       inkscape:connector-curvature="0"
       style="fill-rule:evenodd;stroke:#000000;stroke-width:3;stroke-linecap:butt;stroke-linejoin:round" />
    <path
       d="m 90.74672,222.61197 h -2.515625 l -1,-2.60937 H 82.65297 l -0.953125,2.60937 H 79.24672 l 4.46875,-11.45312 h 2.4375 z m -4.265625,-4.53125 -1.578125,-4.25 -1.546875,4.25 z m 13.085937,4.53125 h -2.046875 v -1.21875 q -0.5,0.70313 -1.203125,1.0625 -0.6875,0.34375 -1.390625,0.34375 -1.421875,0 -2.453125,-1.15625 -1.015625,-1.15625 -1.015625,-3.21875 0,-2.10937 0.984375,-3.20312 1,-1.09375 2.515625,-1.09375 1.390625,0 2.40625,1.15625 v -4.125 h 2.203125 z m -5.859375,-4.32812 q 0,1.32812 0.359375,1.92187 0.53125,0.85938 1.484375,0.85938 0.765625,0 1.296875,-0.64063 0.53125,-0.65625 0.53125,-1.9375 0,-1.42187 -0.515625,-2.04687 -0.515625,-0.64063 -1.328125,-0.64063 -0.78125,0 -1.3125,0.625 -0.515625,0.625 -0.515625,1.85938 z m 7.851563,-3.96875 h 2.03125 v 1.125 q 1.07812,-1.3125 2.57812,-1.3125 0.79688,0 1.375,0.32812 0.59375,0.32813 0.96875,0.98438 0.54688,-0.65625 1.17188,-0.98438 0.64062,-0.32812 1.35937,-0.32812 0.92188,0 1.54688,0.375 0.64062,0.35937 0.95312,1.07812 0.21875,0.53125 0.21875,1.71875 v 5.3125 h -2.1875 v -4.75 q 0,-1.23437 -0.23437,-1.59375 -0.29688,-0.46875 -0.9375,-0.46875 -0.45313,0 -0.85938,0.28125 -0.40625,0.28125 -0.59375,0.82813 -0.17187,0.54687 -0.17187,1.71875 v 3.98437 h -2.20313 v -4.54687 q 0,-1.21875 -0.125,-1.5625 -0.10937,-0.35938 -0.35937,-0.53125 -0.23438,-0.17188 -0.65625,-0.17188 -0.51563,0 -0.92188,0.28125 -0.40625,0.26563 -0.57812,0.78125 -0.17188,0.51563 -0.17188,1.71875 v 4.03125 h -2.20312 z m 14.39844,-1.125 v -2.03125 h 2.1875 v 2.03125 z m 0,9.42187 v -8.29687 h 2.1875 v 8.29687 z m 11.99218,0 h -2.20312 v -4.23437 q 0,-1.34375 -0.14063,-1.73438 -0.14062,-0.40625 -0.45312,-0.625 -0.3125,-0.21875 -0.76563,-0.21875 -0.5625,0 -1.01562,0.3125 -0.45313,0.3125 -0.625,0.82813 -0.17188,0.51562 -0.17188,1.90625 v 3.76562 h -2.1875 v -8.29687 h 2.03125 v 1.21875 q 1.09375,-1.40625 2.73438,-1.40625 0.73437,0 1.32812,0.26562 0.60938,0.25 0.90625,0.65625 0.3125,0.40625 0.4375,0.92188 0.125,0.51562 0.125,1.48437 z"
       id="path37"
       inkscape:connector-curvature="0"
       style="fill:#000000;fill-rule:nonzero" />
    <path
       d="m 80.387344,241.61197 v -11.45312 h 3.453125 l 2.078125,7.8125 2.0625,-7.8125 h 3.46875 v 11.45312 h -2.15625 v -9.01562 l -2.265625,9.01562 h -2.234375 l -2.265625,-9.01562 v 9.01562 z m 14.984375,-5.76562 -2,-0.35938 q 0.34375,-1.20312 1.15625,-1.78125 0.828125,-0.57812 2.4375,-0.57812 1.46875,0 2.1875,0.34375 0.71875,0.34375 1.015621,0.89062 0.29688,0.53125 0.29688,1.95313 l -0.0312,2.5625 q 0,1.09375 0.10937,1.625 0.10938,0.51562 0.39063,1.10937 h -2.171876 q -0.07813,-0.21875 -0.203125,-0.65625 -0.0625,-0.1875 -0.07813,-0.25 -0.5625,0.54688 -1.203125,0.82813 -0.640625,0.26562 -1.375,0.26562 -1.28125,0 -2.015625,-0.6875 -0.734375,-0.70312 -0.734375,-1.76562 0,-0.70313 0.328125,-1.25 0.34375,-0.5625 0.9375,-0.84375 0.609375,-0.29688 1.75,-0.51563 1.546875,-0.29687 2.140625,-0.54687 v -0.21875 q 0,-0.625 -0.3125,-0.89063 -0.3125,-0.28125 -1.1875,-0.28125 -0.578125,0 -0.90625,0.23438 -0.328125,0.23437 -0.53125,0.8125 z m 2.9375,1.78125 q -0.421875,0.14062 -1.34375,0.34375 -0.90625,0.1875 -1.1875,0.375 -0.4375,0.29687 -0.4375,0.76562 0,0.46875 0.34375,0.8125 0.34375,0.32813 0.875,0.32813 0.59375,0 1.140625,-0.39063 0.390625,-0.29687 0.515625,-0.73437 0.09375,-0.28125 0.09375,-1.0625 z m 11.867191,3.98437 h -2.20313 v -4.23437 q 0,-1.34375 -0.14062,-1.73438 -0.14063,-0.40625 -0.45313,-0.625 -0.3125,-0.21875 -0.76562,-0.21875 -0.5625,0 -1.01563,0.3125 -0.45312,0.3125 -0.625,0.82813 -0.17187,0.51562 -0.17187,1.90625 v 3.76562 h -2.1875 v -8.29687 h 2.03125 v 1.21875 q 1.09375,-1.40625 2.73437,-1.40625 0.73438,0 1.32813,0.26562 0.60937,0.25 0.90625,0.65625 0.3125,0.40625 0.4375,0.92188 0.125,0.51562 0.125,1.48437 z m 3.86718,-5.76562 -2,-0.35938 q 0.34375,-1.20312 1.15625,-1.78125 0.82813,-0.57812 2.4375,-0.57812 1.46875,0 2.1875,0.34375 0.71875,0.34375 1.01563,0.89062 0.29687,0.53125 0.29687,1.95313 l -0.0312,2.5625 q 0,1.09375 0.10938,1.625 0.10937,0.51562 0.39062,1.10937 h -2.17187 q -0.0781,-0.21875 -0.20313,-0.65625 -0.0625,-0.1875 -0.0781,-0.25 -0.5625,0.54688 -1.20313,0.82813 -0.64062,0.26562 -1.375,0.26562 -1.28125,0 -2.01562,-0.6875 -0.73438,-0.70312 -0.73438,-1.76562 0,-0.70313 0.32813,-1.25 0.34375,-0.5625 0.9375,-0.84375 0.60937,-0.29688 1.75,-0.51563 1.54687,-0.29687 2.14062,-0.54687 v -0.21875 q 0,-0.625 -0.3125,-0.89063 -0.3125,-0.28125 -1.1875,-0.28125 -0.57812,0 -0.90625,0.23438 -0.32812,0.23437 -0.53125,0.8125 z m 2.9375,1.78125 q -0.42187,0.14062 -1.34375,0.34375 -0.90625,0.1875 -1.1875,0.375 -0.4375,0.29687 -0.4375,0.76562 0,0.46875 0.34375,0.8125 0.34375,0.32813 0.875,0.32813 0.59375,0 1.14063,-0.39063 0.39062,-0.29687 0.51562,-0.73437 0.0937,-0.28125 0.0937,-1.0625 z m 4.11719,4.53125 2.5,0.3125 q 0.0625,0.4375 0.29688,0.59375 0.3125,0.23437 0.98437,0.23437 0.85938,0 1.28125,-0.25 0.29688,-0.17187 0.4375,-0.5625 0.10938,-0.26562 0.10938,-1.01562 v -1.20313 q -0.98438,1.34375 -2.48438,1.34375 -1.67187,0 -2.65625,-1.42187 -0.76562,-1.10938 -0.76562,-2.78125 0,-2.07813 1,-3.17188 1.01562,-1.10937 2.5,-1.10937 1.54687,0 2.54687,1.34375 v -1.15625 h 2.04688 v 7.4375 q 0,1.48437 -0.25,2.20312 -0.23438,0.73438 -0.67188,1.14063 -0.4375,0.42187 -1.17187,0.65625 -0.71875,0.23437 -1.84375,0.23437 -2.10938,0 -3,-0.73437 -0.875,-0.71875 -0.875,-1.82813 0,-0.10937 0.0156,-0.26562 z m 1.95313,-4.875 q 0,1.32812 0.51562,1.9375 0.51563,0.60937 1.26563,0.60937 0.79687,0 1.34375,-0.625 0.5625,-0.625 0.5625,-1.85937 0,-1.29688 -0.53125,-1.92188 -0.53125,-0.625 -1.34375,-0.625 -0.78125,0 -1.29688,0.625 -0.51562,0.60938 -0.51562,1.85938 z m 12.82031,1.6875 2.1875,0.35937 q -0.42188,1.20313 -1.32813,1.84375 -0.90625,0.625 -2.28125,0.625 -2.15625,0 -3.20312,-1.42187 -0.8125,-1.125 -0.8125,-2.85938 0,-2.0625 1.07812,-3.21875 1.07813,-1.17187 2.71875,-1.17187 1.85938,0 2.92188,1.21875 1.07812,1.21875 1.03125,3.75 h -5.5 q 0.0156,0.96875 0.51562,1.51562 0.51563,0.54688 1.28125,0.54688 0.51563,0 0.85938,-0.28125 0.35937,-0.28125 0.53125,-0.90625 z m 0.125,-2.21875 q -0.0156,-0.95313 -0.48438,-1.45313 -0.46875,-0.5 -1.14062,-0.5 -0.71875,0 -1.1875,0.53125 -0.46875,0.51563 -0.46875,1.42188 z m 3.80469,-3.4375 h 2.03125 v 1.125 q 1.07812,-1.3125 2.57812,-1.3125 0.79688,0 1.375,0.32812 0.59375,0.32813 0.96875,0.98438 0.54688,-0.65625 1.17188,-0.98438 0.64062,-0.32812 1.35937,-0.32812 0.92188,0 1.54688,0.375 0.64062,0.35937 0.95312,1.07812 0.21875,0.53125 0.21875,1.71875 v 5.3125 h -2.1875 v -4.75 q 0,-1.23437 -0.23437,-1.59375 -0.29688,-0.46875 -0.9375,-0.46875 -0.45313,0 -0.85938,0.28125 -0.40625,0.28125 -0.59375,0.82813 -0.17187,0.54687 -0.17187,1.71875 v 3.98437 h -2.20313 v -4.54687 q 0,-1.21875 -0.125,-1.5625 -0.10937,-0.35938 -0.35937,-0.53125 -0.23438,-0.17188 -0.65625,-0.17188 -0.51563,0 -0.92188,0.28125 -0.40625,0.26563 -0.57812,0.78125 -0.17188,0.51563 -0.17188,1.71875 v 4.03125 h -2.20312 z m 19.19531,5.65625 2.1875,0.35937 q -0.42188,1.20313 -1.32813,1.84375 -0.90625,0.625 -2.28125,0.625 -2.15625,0 -3.20312,-1.42187 -0.8125,-1.125 -0.8125,-2.85938 0,-2.0625 1.07812,-3.21875 1.07813,-1.17187 2.71875,-1.17187 1.85938,0 2.92188,1.21875 1.07812,1.21875 1.03125,3.75 h -5.5 q 0.0156,0.96875 0.51562,1.51562 0.51563,0.54688 1.28125,0.54688 0.51563,0 0.85938,-0.28125 0.35937,-0.28125 0.53125,-0.90625 z m 0.125,-2.21875 q -0.0156,-0.95313 -0.48438,-1.45313 -0.46875,-0.5 -1.14062,-0.5 -0.71875,0 -1.1875,0.53125 -0.46875,0.51563 -0.46875,1.42188 z m 11.52344,4.85937 h -2.20313 v -4.23437 q 0,-1.34375 -0.14062,-1.73438 -0.14063,-0.40625 -0.45313,-0.625 -0.3125,-0.21875 -0.76562,-0.21875 -0.5625,0 -1.01563,0.3125 -0.45312,0.3125 -0.625,0.82813 -0.17187,0.51562 -0.17187,1.90625 v 3.76562 h -2.1875 v -8.29687 h 2.03125 v 1.21875 q 1.09375,-1.40625 2.73437,-1.40625 0.73438,0 1.32813,0.26562 0.60937,0.25 0.90625,0.65625 0.3125,0.40625 0.4375,0.92188 0.125,0.51562 0.125,1.48437 z m 6.02343,-8.29687 v 1.75 h -1.5 v 3.34375 q 0,1.01562 0.0469,1.1875 0.0469,0.15625 0.1875,0.26562 0.15625,0.10938 0.375,0.10938 0.3125,0 0.89062,-0.20313 l 0.1875,1.70313 q -0.76562,0.32812 -1.73437,0.32812 -0.59375,0 -1.07813,-0.20312 -0.46875,-0.20313 -0.70312,-0.51563 -0.21875,-0.3125 -0.29688,-0.85937 -0.0781,-0.375 -0.0781,-1.54688 v -3.60937 h -1 v -1.75 h 1 v -1.65625 l 2.20312,-1.28125 v 2.9375 z"
       id="path39"
       inkscape:connector-curvature="0"
       style="fill:#000000;fill-rule:nonzero" />
    <path
       d="m 200.8924,198.25197 h 202.11023 v 59.52757 H 200.8924 Z"
       id="path41"
       inkscape:connector-curvature="0"
       style="fill:#ffffff;fill-rule:evenodd" />
    <path
       d="m 200.8924,198.25197 h 202.11023 v 59.52757 H 200.8924 Z"
       id="path43"
       inkscape:connector-curvature="0"
       style="fill-rule:evenodd;stroke:#000000;stroke-width:3;stroke-linecap:butt;stroke-linejoin:round" />
    <path
       d="m 211.03302,222.61197 v -11.45312 h 3.45312 l 2.07813,7.8125 2.0625,-7.8125 h 3.46875 v 11.45312 h -2.15625 v -9.01562 l -2.26563,9.01562 h -2.23437 l -2.26563,-9.01562 v 9.01562 z m 12.82812,-4.26562 q 0,-1.09375 0.53125,-2.10938 0.54688,-1.03125 1.53125,-1.5625 1,-0.54687 2.21875,-0.54687 1.875,0 3.07813,1.21875 1.20312,1.21875 1.20312,3.09375 0,1.875 -1.21875,3.125 -1.20312,1.23437 -3.04687,1.23437 -1.14063,0 -2.1875,-0.51562 -1.03125,-0.51563 -1.57813,-1.51563 -0.53125,-1 -0.53125,-2.42187 z m 2.25,0.10937 q 0,1.23438 0.57813,1.89063 0.59375,0.65625 1.45312,0.65625 0.85938,0 1.4375,-0.65625 0.59375,-0.65625 0.59375,-1.90625 0,-1.21875 -0.59375,-1.875 -0.57812,-0.65625 -1.4375,-0.65625 -0.85937,0 -1.45312,0.65625 -0.57813,0.65625 -0.57813,1.89062 z m 7.25782,1.78125 2.20312,-0.32812 q 0.14063,0.64062 0.5625,0.96875 0.4375,0.32812 1.21875,0.32812 0.84375,0 1.28125,-0.3125 0.28125,-0.21875 0.28125,-0.57812 0,-0.25 -0.15625,-0.42188 -0.15625,-0.15625 -0.73437,-0.28125 -2.65625,-0.59375 -3.35938,-1.07812 -0.98437,-0.67188 -0.98437,-1.85938 0,-1.07812 0.84375,-1.8125 0.85937,-0.73437 2.64062,-0.73437 1.70313,0 2.53125,0.5625 0.82813,0.54687 1.14063,1.625 l -2.0625,0.39062 q -0.14063,-0.48437 -0.51563,-0.73437 -0.35937,-0.26563 -1.04687,-0.26563 -0.875,0 -1.25,0.23438 -0.25,0.17187 -0.25,0.45312 0,0.23438 0.21875,0.39063 0.29687,0.21875 2.04687,0.625 1.76563,0.39062 2.45313,0.96875 0.6875,0.59375 0.6875,1.64062 0,1.14063 -0.95313,1.96875 -0.95312,0.8125 -2.8125,0.8125 -1.70312,0 -2.6875,-0.6875 -0.98437,-0.6875 -1.29687,-1.875 z m 13.47656,-5.92187 v 1.75 h -1.5 v 3.34375 q 0,1.01562 0.0469,1.1875 0.0469,0.15625 0.1875,0.26562 0.15625,0.10938 0.375,0.10938 0.3125,0 0.89063,-0.20313 l 0.1875,1.70313 q -0.76563,0.32812 -1.73438,0.32812 -0.59375,0 -1.07812,-0.20312 -0.46875,-0.20313 -0.70313,-0.51563 -0.21875,-0.3125 -0.29687,-0.85937 -0.0781,-0.375 -0.0781,-1.54688 v -3.60937 h -1 v -1.75 h 1 v -1.65625 l 2.20313,-1.28125 v 2.9375 z"
       id="path45"
       inkscape:connector-curvature="0"
       style="fill:#cc0000;fill-rule:nonzero" />
    <path
       d="m 260.16583,218.39322 2.23438,0.71875 q -0.51563,1.875 -1.71875,2.79688 -1.1875,0.90625 -3.03125,0.90625 -2.28125,0 -3.75,-1.5625 -1.46875,-1.5625 -1.46875,-4.26563 0,-2.85937 1.46875,-4.4375 1.48437,-1.59375 3.89062,-1.59375 2.09375,0 3.40625,1.25 0.78125,0.73438 1.17188,2.10938 l -2.28125,0.54687 q -0.20313,-0.89062 -0.85938,-1.40625 -0.64062,-0.51562 -1.5625,-0.51562 -1.26562,0 -2.0625,0.92187 -0.79687,0.90625 -0.79687,2.95313 0,2.17187 0.78125,3.09375 0.78125,0.92187 2.03125,0.92187 0.92187,0 1.57812,-0.57812 0.67188,-0.59375 0.96875,-1.85938 z m 5.85156,-1.54687 -2,-0.35938 q 0.34375,-1.20312 1.15625,-1.78125 0.82813,-0.57812 2.4375,-0.57812 1.46875,0 2.1875,0.34375 0.71875,0.34375 1.01563,0.89062 0.29687,0.53125 0.29687,1.95313 l -0.0312,2.5625 q 0,1.09375 0.10938,1.625 0.10937,0.51562 0.39062,1.10937 h -2.17187 q -0.0781,-0.21875 -0.20313,-0.65625 -0.0625,-0.1875 -0.0781,-0.25 -0.5625,0.54688 -1.20313,0.82813 -0.64062,0.26562 -1.375,0.26562 -1.28125,0 -2.01562,-0.6875 -0.73438,-0.70312 -0.73438,-1.76562 0,-0.70313 0.32813,-1.25 0.34375,-0.5625 0.9375,-0.84375 0.60937,-0.29688 1.75,-0.51563 1.54687,-0.29687 2.14062,-0.54687 v -0.21875 q 0,-0.625 -0.3125,-0.89063 -0.3125,-0.28125 -1.1875,-0.28125 -0.57812,0 -0.90625,0.23438 -0.32812,0.23437 -0.53125,0.8125 z m 2.9375,1.78125 q -0.42187,0.14062 -1.34375,0.34375 -0.90625,0.1875 -1.1875,0.375 -0.4375,0.29687 -0.4375,0.76562 0,0.46875 0.34375,0.8125 0.34375,0.32813 0.875,0.32813 0.59375,0 1.14063,-0.39063 0.39062,-0.29687 0.51562,-0.73437 0.0937,-0.28125 0.0937,-1.0625 z m 4.25782,-4.3125 h 2.04687 v 1.21875 q 0.39063,-0.625 1.0625,-1.01563 0.6875,-0.39062 1.51563,-0.39062 1.45312,0 2.45312,1.14062 1.01563,1.125 1.01563,3.14063 0,2.07812 -1.01563,3.23437 -1.01562,1.15625 -2.46875,1.15625 -0.6875,0 -1.25,-0.26562 -0.54687,-0.28125 -1.17187,-0.95313 v 4.1875 h -2.1875 z m 2.17187,4 q 0,1.40625 0.54688,2.07812 0.5625,0.65625 1.35937,0.65625 0.76563,0 1.26563,-0.60937 0.51562,-0.60938 0.51562,-2.01563 0,-1.29687 -0.53125,-1.92187 -0.51562,-0.64063 -1.29687,-0.64063 -0.79688,0 -1.32813,0.625 -0.53125,0.60938 -0.53125,1.82813 z m 9.30469,-1.46875 -2,-0.35938 q 0.34375,-1.20312 1.15625,-1.78125 0.82812,-0.57812 2.4375,-0.57812 1.46875,0 2.1875,0.34375 0.71875,0.34375 1.01562,0.89062 0.29688,0.53125 0.29688,1.95313 l -0.0312,2.5625 q 0,1.09375 0.10937,1.625 0.10938,0.51562 0.39063,1.10937 h -2.17188 q -0.0781,-0.21875 -0.20312,-0.65625 -0.0625,-0.1875 -0.0781,-0.25 -0.5625,0.54688 -1.20312,0.82813 -0.64063,0.26562 -1.375,0.26562 -1.28125,0 -2.01563,-0.6875 -0.73437,-0.70312 -0.73437,-1.76562 0,-0.70313 0.32812,-1.25 0.34375,-0.5625 0.9375,-0.84375 0.60938,-0.29688 1.75,-0.51563 1.54688,-0.29687 2.14063,-0.54687 v -0.21875 q 0,-0.625 -0.3125,-0.89063 -0.3125,-0.28125 -1.1875,-0.28125 -0.57813,0 -0.90625,0.23438 -0.32813,0.23437 -0.53125,0.8125 z m 2.9375,1.78125 q -0.42188,0.14062 -1.34375,0.34375 -0.90625,0.1875 -1.1875,0.375 -0.4375,0.29687 -0.4375,0.76562 0,0.46875 0.34375,0.8125 0.34375,0.32813 0.875,0.32813 0.59375,0 1.14062,-0.39063 0.39063,-0.29687 0.51563,-0.73437 0.0937,-0.28125 0.0937,-1.0625 z m 4.22656,3.98437 v -11.45312 h 2.1875 v 4.125 q 1.01563,-1.15625 2.40625,-1.15625 1.51563,0 2.5,1.09375 1,1.09375 1,3.15625 0,2.125 -1.01562,3.28125 -1,1.14062 -2.45313,1.14062 -0.70312,0 -1.40625,-0.35937 -0.6875,-0.35938 -1.1875,-1.04688 v 1.21875 z m 2.17188,-4.32812 q 0,1.28125 0.40625,1.90625 0.57812,0.875 1.51562,0.875 0.73438,0 1.23438,-0.625 0.51562,-0.625 0.51562,-1.95313 0,-1.42187 -0.51562,-2.04687 -0.51563,-0.64063 -1.3125,-0.64063 -0.79688,0 -1.32813,0.625 -0.51562,0.60938 -0.51562,1.85938 z m 7.69531,-5.09375 v -2.03125 h 2.1875 v 2.03125 z m 0,9.42187 v -8.29687 h 2.1875 v 8.29687 z m 4.44531,0 v -11.45312 h 2.1875 v 11.45312 z m 4.44531,-9.42187 v -2.03125 h 2.1875 v 2.03125 z m 0,9.42187 v -8.29687 h 2.1875 v 8.29687 z m 8.24219,-8.29687 v 1.75 h -1.5 v 3.34375 q 0,1.01562 0.0469,1.1875 0.0469,0.15625 0.1875,0.26562 0.15625,0.10938 0.375,0.10938 0.3125,0 0.89062,-0.20313 l 0.1875,1.70313 q -0.76562,0.32812 -1.73437,0.32812 -0.59375,0 -1.07813,-0.20312 -0.46875,-0.20313 -0.70312,-0.51563 -0.21875,-0.3125 -0.29688,-0.85937 -0.0781,-0.375 -0.0781,-1.54688 v -3.60937 h -1 v -1.75 h 1 v -1.65625 l 2.20312,-1.28125 v 2.9375 z m 1.53125,-1.125 v -2.03125 h 2.1875 v 2.03125 z m 0,9.42187 v -8.29687 h 2.1875 v 8.29687 z m 9.24219,-2.64062 2.1875,0.35937 q -0.42188,1.20313 -1.32813,1.84375 -0.90625,0.625 -2.28125,0.625 -2.15625,0 -3.20312,-1.42187 -0.8125,-1.125 -0.8125,-2.85938 0,-2.0625 1.07812,-3.21875 1.07813,-1.17187 2.71875,-1.17187 1.85938,0 2.92188,1.21875 1.07812,1.21875 1.03125,3.75 h -5.5 q 0.0156,0.96875 0.51562,1.51562 0.51563,0.54688 1.28125,0.54688 0.51563,0 0.85938,-0.28125 0.35937,-0.28125 0.53125,-0.90625 z m 0.125,-2.21875 q -0.0156,-0.95313 -0.48438,-1.45313 -0.46875,-0.5 -1.14062,-0.5 -0.71875,0 -1.1875,0.53125 -0.46875,0.51563 -0.46875,1.42188 z m 3.19531,2.48437 2.20313,-0.32812 q 0.14062,0.64062 0.5625,0.96875 0.4375,0.32812 1.21875,0.32812 0.84375,0 1.28125,-0.3125 0.28125,-0.21875 0.28125,-0.57812 0,-0.25 -0.15625,-0.42188 -0.15625,-0.15625 -0.73438,-0.28125 -2.65625,-0.59375 -3.35937,-1.07812 -0.98438,-0.67188 -0.98438,-1.85938 0,-1.07812 0.84375,-1.8125 0.85938,-0.73437 2.64063,-0.73437 1.70312,0 2.53125,0.5625 0.82812,0.54687 1.14062,1.625 l -2.0625,0.39062 q -0.14062,-0.48437 -0.51562,-0.73437 -0.35938,-0.26563 -1.04688,-0.26563 -0.875,0 -1.25,0.23438 -0.25,0.17187 -0.25,0.45312 0,0.23438 0.21875,0.39063 0.29688,0.21875 2.04688,0.625 1.76562,0.39062 2.45312,0.96875 0.6875,0.59375 0.6875,1.64062 0,1.14063 -0.95312,1.96875 -0.95313,0.8125 -2.8125,0.8125 -1.70313,0 -2.6875,-0.6875 -0.98438,-0.6875 -1.29688,-1.875 z"
       id="path47"
       inkscape:connector-curvature="0"
       style="fill:#000000;fill-rule:nonzero" />
    <path
       d="M 70.24672,267.6168 H 200.8924 v 59.52756 H 70.24672 Z"
       id="path49"
       inkscape:connector-curvature="0"
       style="fill:#fff2cc;fill-rule:evenodd" />
    <path
       d="M 70.24672,267.6168 H 200.8924 v 59.52756 H 70.24672 Z"
       id="path51"
       inkscape:connector-curvature="0"
       style="fill-rule:evenodd;stroke:#000000;stroke-width:3;stroke-linecap:butt;stroke-linejoin:round" />
    <path
       d="m 80.40297,280.52368 h 2.3125 v 6.20313 q 0,1.46875 0.07813,1.90625 0.15625,0.70312 0.703125,1.14062 0.5625,0.42188 1.53125,0.42188 0.984375,0 1.484375,-0.40625 0.5,-0.40625 0.59375,-0.98438 0.109375,-0.59375 0.109375,-1.95312 v -6.32813 h 2.3125 v 6.01563 q 0,2.0625 -0.1875,2.92187 -0.1875,0.84375 -0.6875,1.4375 -0.5,0.57813 -1.34375,0.9375 -0.84375,0.34375 -2.203125,0.34375 -1.640625,0 -2.5,-0.375 -0.84375,-0.39062 -1.34375,-1 -0.484375,-0.60937 -0.640625,-1.26562 -0.21875,-0.98438 -0.21875,-2.90625 z m 10.773437,9.07813 2.203125,-0.32813 q 0.140625,0.64063 0.5625,0.96875 0.4375,0.32813 1.21875,0.32813 0.84375,0 1.28125,-0.3125 0.28125,-0.21875 0.28125,-0.57813 0,-0.25 -0.15625,-0.42187 -0.15625,-0.15625 -0.734375,-0.28125 -2.65625,-0.59375 -3.359375,-1.07813 -0.984375,-0.67187 -0.984375,-1.85937 0,-1.07813 0.84375,-1.8125 0.859375,-0.73438 2.640625,-0.73438 1.703125,0 2.53125,0.5625 0.828125,0.54688 1.140625,1.625 l -2.0625,0.39063 q -0.140625,-0.48438 -0.515625,-0.73438 -0.359375,-0.26562 -1.046875,-0.26562 -0.875,0 -1.25,0.23437 -0.25,0.17188 -0.25,0.45313 0,0.23437 0.21875,0.39062 0.296875,0.21875 2.046875,0.625 1.765625,0.39063 2.453125,0.96875 0.6875,0.59375 0.6875,1.64063 0,1.14062 -0.953125,1.96875 -0.953125,0.8125 -2.8125,0.8125 -1.703125,0 -2.6875,-0.6875 -0.984375,-0.6875 -1.296875,-1.875 z m 14.476563,-0.26563 2.1875,0.35938 q -0.42188,1.20312 -1.32813,1.84375 -0.90625,0.625 -2.28125,0.625 -2.15625,0 -3.20312,-1.42188 -0.8125,-1.125 -0.8125,-2.85937 0,-2.0625 1.07812,-3.21875 1.07813,-1.17188 2.71875,-1.17188 1.85938,0 2.92188,1.21875 1.07812,1.21875 1.03125,3.75 h -5.5 q 0.0156,0.96875 0.51562,1.51563 0.51563,0.54687 1.28125,0.54687 0.51563,0 0.85938,-0.28125 0.35937,-0.28125 0.53125,-0.90625 z m 0.125,-2.21875 q -0.0156,-0.95312 -0.48438,-1.45312 -0.46875,-0.5 -1.14062,-0.5 -0.71875,0 -1.1875,0.53125 -0.46875,0.51562 -0.46875,1.42187 z m 6.07031,4.85938 h -2.1875 v -8.29688 h 2.03125 v 1.17188 q 0.53125,-0.82813 0.9375,-1.09375 0.42188,-0.26563 0.95313,-0.26563 0.75,0 1.45312,0.40625 l -0.6875,1.92188 q -0.54687,-0.35938 -1.03125,-0.35938 -0.45312,0 -0.78125,0.25 -0.3125,0.25 -0.5,0.92188 -0.1875,0.65625 -0.1875,2.78125 z"
       id="path53"
       inkscape:connector-curvature="0"
       style="fill:#000000;fill-rule:nonzero" />
    <path
       d="m 80.387344,310.9768 v -11.45312 h 3.453125 l 2.078125,7.8125 2.0625,-7.8125 h 3.46875 v 11.45312 h -2.15625 v -9.01562 l -2.265625,9.01562 h -2.234375 l -2.265625,-9.01562 v 9.01562 z m 14.984375,-5.76562 -2,-0.35938 q 0.34375,-1.20312 1.15625,-1.78125 0.828125,-0.57812 2.4375,-0.57812 1.46875,0 2.1875,0.34375 0.71875,0.34375 1.015621,0.89062 0.29688,0.53125 0.29688,1.95313 l -0.0312,2.5625 q 0,1.09375 0.10937,1.625 0.10938,0.51562 0.39063,1.10937 h -2.171876 q -0.07813,-0.21875 -0.203125,-0.65625 -0.0625,-0.1875 -0.07813,-0.25 -0.5625,0.54688 -1.203125,0.82813 -0.640625,0.26562 -1.375,0.26562 -1.28125,0 -2.015625,-0.6875 -0.734375,-0.70312 -0.734375,-1.76562 0,-0.70313 0.328125,-1.25 0.34375,-0.5625 0.9375,-0.84375 0.609375,-0.29688 1.75,-0.51563 1.546875,-0.29687 2.140625,-0.54687 v -0.21875 q 0,-0.625 -0.3125,-0.89063 -0.3125,-0.28125 -1.1875,-0.28125 -0.578125,0 -0.90625,0.23438 -0.328125,0.23437 -0.53125,0.8125 z m 2.9375,1.78125 q -0.421875,0.14062 -1.34375,0.34375 -0.90625,0.1875 -1.1875,0.375 -0.4375,0.29687 -0.4375,0.76562 0,0.46875 0.34375,0.8125 0.34375,0.32813 0.875,0.32813 0.59375,0 1.140625,-0.39063 0.390625,-0.29687 0.515625,-0.73437 0.09375,-0.28125 0.09375,-1.0625 z m 11.867191,3.98437 h -2.20313 v -4.23437 q 0,-1.34375 -0.14062,-1.73438 -0.14063,-0.40625 -0.45313,-0.625 -0.3125,-0.21875 -0.76562,-0.21875 -0.5625,0 -1.01563,0.3125 -0.45312,0.3125 -0.625,0.82813 -0.17187,0.51562 -0.17187,1.90625 v 3.76562 h -2.1875 v -8.29687 h 2.03125 v 1.21875 q 1.09375,-1.40625 2.73437,-1.40625 0.73438,0 1.32813,0.26562 0.60937,0.25 0.90625,0.65625 0.3125,0.40625 0.4375,0.92188 0.125,0.51562 0.125,1.48437 z m 3.86718,-5.76562 -2,-0.35938 q 0.34375,-1.20312 1.15625,-1.78125 0.82813,-0.57812 2.4375,-0.57812 1.46875,0 2.1875,0.34375 0.71875,0.34375 1.01563,0.89062 0.29687,0.53125 0.29687,1.95313 l -0.0312,2.5625 q 0,1.09375 0.10938,1.625 0.10937,0.51562 0.39062,1.10937 h -2.17187 q -0.0781,-0.21875 -0.20313,-0.65625 -0.0625,-0.1875 -0.0781,-0.25 -0.5625,0.54688 -1.20313,0.82813 -0.64062,0.26562 -1.375,0.26562 -1.28125,0 -2.01562,-0.6875 -0.73438,-0.70312 -0.73438,-1.76562 0,-0.70313 0.32813,-1.25 0.34375,-0.5625 0.9375,-0.84375 0.60937,-0.29688 1.75,-0.51563 1.54687,-0.29687 2.14062,-0.54687 v -0.21875 q 0,-0.625 -0.3125,-0.89063 -0.3125,-0.28125 -1.1875,-0.28125 -0.57812,0 -0.90625,0.23438 -0.32812,0.23437 -0.53125,0.8125 z m 2.9375,1.78125 q -0.42187,0.14062 -1.34375,0.34375 -0.90625,0.1875 -1.1875,0.375 -0.4375,0.29687 -0.4375,0.76562 0,0.46875 0.34375,0.8125 0.34375,0.32813 0.875,0.32813 0.59375,0 1.14063,-0.39063 0.39062,-0.29687 0.51562,-0.73437 0.0937,-0.28125 0.0937,-1.0625 z m 4.11719,4.53125 2.5,0.3125 q 0.0625,0.4375 0.29688,0.59375 0.3125,0.23437 0.98437,0.23437 0.85938,0 1.28125,-0.25 0.29688,-0.17187 0.4375,-0.5625 0.10938,-0.26562 0.10938,-1.01562 v -1.20313 q -0.98438,1.34375 -2.48438,1.34375 -1.67187,0 -2.65625,-1.42187 -0.76562,-1.10938 -0.76562,-2.78125 0,-2.07813 1,-3.17188 1.01562,-1.10937 2.5,-1.10937 1.54687,0 2.54687,1.34375 v -1.15625 h 2.04688 v 7.4375 q 0,1.48437 -0.25,2.20312 -0.23438,0.73438 -0.67188,1.14063 -0.4375,0.42187 -1.17187,0.65625 -0.71875,0.23437 -1.84375,0.23437 -2.10938,0 -3,-0.73437 -0.875,-0.71875 -0.875,-1.82813 0,-0.10937 0.0156,-0.26562 z m 1.95313,-4.875 q 0,1.32812 0.51562,1.9375 0.51563,0.60937 1.26563,0.60937 0.79687,0 1.34375,-0.625 0.5625,-0.625 0.5625,-1.85937 0,-1.29688 -0.53125,-1.92188 -0.53125,-0.625 -1.34375,-0.625 -0.78125,0 -1.29688,0.625 -0.51562,0.60938 -0.51562,1.85938 z m 12.82031,1.6875 2.1875,0.35937 q -0.42188,1.20313 -1.32813,1.84375 -0.90625,0.625 -2.28125,0.625 -2.15625,0 -3.20312,-1.42187 -0.8125,-1.125 -0.8125,-2.85938 0,-2.0625 1.07812,-3.21875 1.07813,-1.17187 2.71875,-1.17187 1.85938,0 2.92188,1.21875 1.07812,1.21875 1.03125,3.75 h -5.5 q 0.0156,0.96875 0.51562,1.51562 0.51563,0.54688 1.28125,0.54688 0.51563,0 0.85938,-0.28125 0.35937,-0.28125 0.53125,-0.90625 z m 0.125,-2.21875 q -0.0156,-0.95313 -0.48438,-1.45313 -0.46875,-0.5 -1.14062,-0.5 -0.71875,0 -1.1875,0.53125 -0.46875,0.51563 -0.46875,1.42188 z m 3.80469,-3.4375 h 2.03125 v 1.125 q 1.07812,-1.3125 2.57812,-1.3125 0.79688,0 1.375,0.32812 0.59375,0.32813 0.96875,0.98438 0.54688,-0.65625 1.17188,-0.98438 0.64062,-0.32812 1.35937,-0.32812 0.92188,0 1.54688,0.375 0.64062,0.35937 0.95312,1.07812 0.21875,0.53125 0.21875,1.71875 v 5.3125 h -2.1875 v -4.75 q 0,-1.23437 -0.23437,-1.59375 -0.29688,-0.46875 -0.9375,-0.46875 -0.45313,0 -0.85938,0.28125 -0.40625,0.28125 -0.59375,0.82813 -0.17187,0.54687 -0.17187,1.71875 v 3.98437 h -2.20313 v -4.54687 q 0,-1.21875 -0.125,-1.5625 -0.10937,-0.35938 -0.35937,-0.53125 -0.23438,-0.17188 -0.65625,-0.17188 -0.51563,0 -0.92188,0.28125 -0.40625,0.26563 -0.57812,0.78125 -0.17188,0.51563 -0.17188,1.71875 v 4.03125 h -2.20312 z m 19.19531,5.65625 2.1875,0.35937 q -0.42188,1.20313 -1.32813,1.84375 -0.90625,0.625 -2.28125,0.625 -2.15625,0 -3.20312,-1.42187 -0.8125,-1.125 -0.8125,-2.85938 0,-2.0625 1.07812,-3.21875 1.07813,-1.17187 2.71875,-1.17187 1.85938,0 2.92188,1.21875 1.07812,1.21875 1.03125,3.75 h -5.5 q 0.0156,0.96875 0.51562,1.51562 0.51563,0.54688 1.28125,0.54688 0.51563,0 0.85938,-0.28125 0.35937,-0.28125 0.53125,-0.90625 z m 0.125,-2.21875 q -0.0156,-0.95313 -0.48438,-1.45313 -0.46875,-0.5 -1.14062,-0.5 -0.71875,0 -1.1875,0.53125 -0.46875,0.51563 -0.46875,1.42188 z m 11.52344,4.85937 h -2.20313 v -4.23437 q 0,-1.34375 -0.14062,-1.73438 -0.14063,-0.40625 -0.45313,-0.625 -0.3125,-0.21875 -0.76562,-0.21875 -0.5625,0 -1.01563,0.3125 -0.45312,0.3125 -0.625,0.82813 -0.17187,0.51562 -0.17187,1.90625 v 3.76562 h -2.1875 v -8.29687 h 2.03125 v 1.21875 q 1.09375,-1.40625 2.73437,-1.40625 0.73438,0 1.32813,0.26562 0.60937,0.25 0.90625,0.65625 0.3125,0.40625 0.4375,0.92188 0.125,0.51562 0.125,1.48437 z m 6.02343,-8.29687 v 1.75 h -1.5 v 3.34375 q 0,1.01562 0.0469,1.1875 0.0469,0.15625 0.1875,0.26562 0.15625,0.10938 0.375,0.10938 0.3125,0 0.89062,-0.20313 l 0.1875,1.70313 q -0.76562,0.32812 -1.73437,0.32812 -0.59375,0 -1.07813,-0.20312 -0.46875,-0.20313 -0.70312,-0.51563 -0.21875,-0.3125 -0.29688,-0.85937 -0.0781,-0.375 -0.0781,-1.54688 v -3.60937 h -1 v -1.75 h 1 v -1.65625 l 2.20312,-1.28125 v 2.9375 z"
       id="path55"
       inkscape:connector-curvature="0"
       style="fill:#000000;fill-rule:nonzero" />
    <path
       d="m 200.88715,267.62466 h 202.11023 v 59.52756 H 200.88715 Z"
       id="path57"
       inkscape:connector-curvature="0"
       style="fill:#ffffff;fill-rule:evenodd" />
    <path
       d="m 200.88715,267.62466 h 202.11023 v 59.52756 H 200.88715 Z"
       id="path59"
       inkscape:connector-curvature="0"
       style="fill-rule:evenodd;stroke:#000000;stroke-width:3;stroke-linecap:butt;stroke-linejoin:round" />
    <path
       d="m 211.12152,291.98468 v -11.35937 h 2.3125 v 9.42187 h 5.75 v 1.9375 z m 14.49219,-2.64062 2.1875,0.35937 q -0.42188,1.20313 -1.32813,1.84375 -0.90625,0.625 -2.28125,0.625 -2.15625,0 -3.20312,-1.42187 -0.8125,-1.125 -0.8125,-2.85938 0,-2.0625 1.07812,-3.21875 1.07813,-1.17187 2.71875,-1.17187 1.85938,0 2.92188,1.21875 1.07812,1.21875 1.03125,3.75 h -5.5 q 0.0156,0.96875 0.51562,1.51562 0.51563,0.54688 1.28125,0.54688 0.51563,0 0.85938,-0.28125 0.35937,-0.28125 0.53125,-0.90625 z m 0.125,-2.21875 q -0.0156,-0.95313 -0.48438,-1.45313 -0.46875,-0.5 -1.14062,-0.5 -0.71875,0 -1.1875,0.53125 -0.46875,0.51563 -0.46875,1.42188 z m 5.61718,-0.90625 -2,-0.35938 q 0.34375,-1.20312 1.15625,-1.78125 0.82813,-0.57812 2.4375,-0.57812 1.46875,0 2.1875,0.34375 0.71875,0.34375 1.01563,0.89062 0.29687,0.53125 0.29687,1.95313 l -0.0312,2.5625 q 0,1.09375 0.10938,1.625 0.10937,0.51562 0.39062,1.10937 h -2.17187 q -0.0781,-0.21875 -0.20313,-0.65625 -0.0625,-0.1875 -0.0781,-0.25 -0.5625,0.54688 -1.20313,0.82813 -0.64062,0.26562 -1.375,0.26562 -1.28125,0 -2.01562,-0.6875 -0.73438,-0.70312 -0.73438,-1.76562 0,-0.70313 0.32813,-1.25 0.34375,-0.5625 0.9375,-0.84375 0.60937,-0.29688 1.75,-0.51563 1.54687,-0.29687 2.14062,-0.54687 v -0.21875 q 0,-0.625 -0.3125,-0.89063 -0.3125,-0.28125 -1.1875,-0.28125 -0.57812,0 -0.90625,0.23438 -0.32812,0.23437 -0.53125,0.8125 z m 2.9375,1.78125 q -0.42187,0.14062 -1.34375,0.34375 -0.90625,0.1875 -1.1875,0.375 -0.4375,0.29687 -0.4375,0.76562 0,0.46875 0.34375,0.8125 0.34375,0.32813 0.875,0.32813 0.59375,0 1.14063,-0.39063 0.39062,-0.29687 0.51562,-0.73437 0.0937,-0.28125 0.0937,-1.0625 z m 3.53907,1.60937 2.20312,-0.32812 q 0.14063,0.64062 0.5625,0.96875 0.4375,0.32812 1.21875,0.32812 0.84375,0 1.28125,-0.3125 0.28125,-0.21875 0.28125,-0.57812 0,-0.25 -0.15625,-0.42188 -0.15625,-0.15625 -0.73437,-0.28125 -2.65625,-0.59375 -3.35938,-1.07812 -0.98437,-0.67188 -0.98437,-1.85938 0,-1.07812 0.84375,-1.8125 0.85937,-0.73437 2.64062,-0.73437 1.70313,0 2.53125,0.5625 0.82813,0.54687 1.14063,1.625 l -2.0625,0.39062 q -0.14063,-0.48437 -0.51563,-0.73437 -0.35937,-0.26563 -1.04687,-0.26563 -0.875,0 -1.25,0.23438 -0.25,0.17187 -0.25,0.45312 0,0.23438 0.21875,0.39063 0.29687,0.21875 2.04687,0.625 1.76563,0.39062 2.45313,0.96875 0.6875,0.59375 0.6875,1.64062 0,1.14063 -0.95313,1.96875 -0.95312,0.8125 -2.8125,0.8125 -1.70312,0 -2.6875,-0.6875 -0.98437,-0.6875 -1.29687,-1.875 z m 13.47656,-5.92187 v 1.75 h -1.5 v 3.34375 q 0,1.01562 0.0469,1.1875 0.0469,0.15625 0.1875,0.26562 0.15625,0.10938 0.375,0.10938 0.3125,0 0.89063,-0.20313 l 0.1875,1.70313 q -0.76563,0.32812 -1.73438,0.32812 -0.59375,0 -1.07812,-0.20312 -0.46875,-0.20313 -0.70313,-0.51563 -0.21875,-0.3125 -0.29687,-0.85937 -0.0781,-0.375 -0.0781,-1.54688 v -3.60937 h -1 v -1.75 h 1 v -1.65625 l 2.20313,-1.28125 v 2.9375 z"
       id="path61"
       inkscape:connector-curvature="0"
       style="fill:#f1c232;fill-rule:nonzero" />
    <path
       d="m 264.62933,287.76593 2.23437,0.71875 q -0.51562,1.875 -1.71875,2.79688 -1.1875,0.90625 -3.03125,0.90625 -2.28125,0 -3.75,-1.5625 -1.46875,-1.5625 -1.46875,-4.26563 0,-2.85937 1.46875,-4.4375 1.48438,-1.59375 3.89063,-1.59375 2.09375,0 3.40625,1.25 0.78125,0.73438 1.17187,2.10938 l -2.28125,0.54687 q -0.20312,-0.89062 -0.85937,-1.40625 -0.64063,-0.51562 -1.5625,-0.51562 -1.26563,0 -2.0625,0.92187 -0.79688,0.90625 -0.79688,2.95313 0,2.17187 0.78125,3.09375 0.78125,0.92187 2.03125,0.92187 0.92188,0 1.57813,-0.57812 0.67187,-0.59375 0.96875,-1.85938 z m 5.85156,-1.54687 -2,-0.35938 q 0.34375,-1.20312 1.15625,-1.78125 0.82813,-0.57812 2.4375,-0.57812 1.46875,0 2.1875,0.34375 0.71875,0.34375 1.01563,0.89062 0.29687,0.53125 0.29687,1.95313 l -0.0312,2.5625 q 0,1.09375 0.10938,1.625 0.10937,0.51562 0.39062,1.10937 h -2.17187 q -0.0781,-0.21875 -0.20313,-0.65625 -0.0625,-0.1875 -0.0781,-0.25 -0.5625,0.54688 -1.20313,0.82813 -0.64062,0.26562 -1.375,0.26562 -1.28125,0 -2.01562,-0.6875 -0.73438,-0.70312 -0.73438,-1.76562 0,-0.70313 0.32813,-1.25 0.34375,-0.5625 0.9375,-0.84375 0.60937,-0.29688 1.75,-0.51563 1.54687,-0.29687 2.14062,-0.54687 v -0.21875 q 0,-0.625 -0.3125,-0.89063 -0.3125,-0.28125 -1.1875,-0.28125 -0.57812,0 -0.90625,0.23438 -0.32812,0.23437 -0.53125,0.8125 z m 2.9375,1.78125 q -0.42187,0.14062 -1.34375,0.34375 -0.90625,0.1875 -1.1875,0.375 -0.4375,0.29687 -0.4375,0.76562 0,0.46875 0.34375,0.8125 0.34375,0.32813 0.875,0.32813 0.59375,0 1.14063,-0.39063 0.39062,-0.29687 0.51562,-0.73437 0.0937,-0.28125 0.0937,-1.0625 z m 4.25781,-4.3125 h 2.04688 v 1.21875 q 0.39062,-0.625 1.0625,-1.01563 0.6875,-0.39062 1.51562,-0.39062 1.45313,0 2.45313,1.14062 1.01562,1.125 1.01562,3.14063 0,2.07812 -1.01562,3.23437 -1.01563,1.15625 -2.46875,1.15625 -0.6875,0 -1.25,-0.26562 -0.54688,-0.28125 -1.17188,-0.95313 v 4.1875 h -2.1875 z m 2.17188,4 q 0,1.40625 0.54687,2.07812 0.5625,0.65625 1.35938,0.65625 0.76562,0 1.26562,-0.60937 0.51563,-0.60938 0.51563,-2.01563 0,-1.29687 -0.53125,-1.92187 -0.51563,-0.64063 -1.29688,-0.64063 -0.79687,0 -1.32812,0.625 -0.53125,0.60938 -0.53125,1.82813 z m 9.30469,-1.46875 -2,-0.35938 q 0.34375,-1.20312 1.15625,-1.78125 0.82812,-0.57812 2.4375,-0.57812 1.46875,0 2.1875,0.34375 0.71875,0.34375 1.01562,0.89062 0.29688,0.53125 0.29688,1.95313 l -0.0312,2.5625 q 0,1.09375 0.10937,1.625 0.10938,0.51562 0.39063,1.10937 h -2.17188 q -0.0781,-0.21875 -0.20312,-0.65625 -0.0625,-0.1875 -0.0781,-0.25 -0.5625,0.54688 -1.20312,0.82813 -0.64063,0.26562 -1.375,0.26562 -1.28125,0 -2.01563,-0.6875 -0.73437,-0.70312 -0.73437,-1.76562 0,-0.70313 0.32812,-1.25 0.34375,-0.5625 0.9375,-0.84375 0.60938,-0.29688 1.75,-0.51563 1.54688,-0.29687 2.14063,-0.54687 v -0.21875 q 0,-0.625 -0.3125,-0.89063 -0.3125,-0.28125 -1.1875,-0.28125 -0.57813,0 -0.90625,0.23438 -0.32813,0.23437 -0.53125,0.8125 z m 2.9375,1.78125 q -0.42188,0.14062 -1.34375,0.34375 -0.90625,0.1875 -1.1875,0.375 -0.4375,0.29687 -0.4375,0.76562 0,0.46875 0.34375,0.8125 0.34375,0.32813 0.875,0.32813 0.59375,0 1.14062,-0.39063 0.39063,-0.29687 0.51563,-0.73437 0.0937,-0.28125 0.0937,-1.0625 z m 4.22656,3.98437 v -11.45312 h 2.1875 v 4.125 q 1.01562,-1.15625 2.40625,-1.15625 1.51562,0 2.5,1.09375 1,1.09375 1,3.15625 0,2.125 -1.01563,3.28125 -1,1.14062 -2.45312,1.14062 -0.70313,0 -1.40625,-0.35937 -0.6875,-0.35938 -1.1875,-1.04688 v 1.21875 z m 2.17187,-4.32812 q 0,1.28125 0.40625,1.90625 0.57813,0.875 1.51563,0.875 0.73437,0 1.23437,-0.625 0.51563,-0.625 0.51563,-1.95313 0,-1.42187 -0.51563,-2.04687 -0.51562,-0.64063 -1.3125,-0.64063 -0.79687,0 -1.32812,0.625 -0.51563,0.60938 -0.51563,1.85938 z m 7.69532,-5.09375 v -2.03125 h 2.1875 v 2.03125 z m 0,9.42187 v -8.29687 h 2.1875 v 8.29687 z m 4.44531,0 v -11.45312 h 2.1875 v 11.45312 z m 4.44531,-9.42187 v -2.03125 h 2.1875 v 2.03125 z m 0,9.42187 v -8.29687 h 2.1875 v 8.29687 z m 8.24219,-8.29687 v 1.75 h -1.5 v 3.34375 q 0,1.01562 0.0469,1.1875 0.0469,0.15625 0.1875,0.26562 0.15625,0.10938 0.375,0.10938 0.3125,0 0.89063,-0.20313 l 0.1875,1.70313 q -0.76563,0.32812 -1.73438,0.32812 -0.59375,0 -1.07812,-0.20312 -0.46875,-0.20313 -0.70313,-0.51563 -0.21875,-0.3125 -0.29687,-0.85937 -0.0781,-0.375 -0.0781,-1.54688 v -3.60937 h -1 v -1.75 h 1 v -1.65625 l 2.20313,-1.28125 v 2.9375 z m 1.53125,-1.125 v -2.03125 h 2.1875 v 2.03125 z m 0,9.42187 v -8.29687 h 2.1875 v 8.29687 z m 9.24219,-2.64062 2.1875,0.35937 q -0.42188,1.20313 -1.32813,1.84375 -0.90625,0.625 -2.28125,0.625 -2.15625,0 -3.20312,-1.42187 -0.8125,-1.125 -0.8125,-2.85938 0,-2.0625 1.07812,-3.21875 1.07813,-1.17187 2.71875,-1.17187 1.85938,0 2.92188,1.21875 1.07812,1.21875 1.03125,3.75 h -5.5 q 0.0156,0.96875 0.51562,1.51562 0.51563,0.54688 1.28125,0.54688 0.51563,0 0.85938,-0.28125 0.35937,-0.28125 0.53125,-0.90625 z m 0.125,-2.21875 q -0.0156,-0.95313 -0.48438,-1.45313 -0.46875,-0.5 -1.14062,-0.5 -0.71875,0 -1.1875,0.53125 -0.46875,0.51563 -0.46875,1.42188 z m 3.19531,2.48437 2.20312,-0.32812 q 0.14063,0.64062 0.5625,0.96875 0.4375,0.32812 1.21875,0.32812 0.84375,0 1.28125,-0.3125 0.28125,-0.21875 0.28125,-0.57812 0,-0.25 -0.15625,-0.42188 -0.15625,-0.15625 -0.73437,-0.28125 -2.65625,-0.59375 -3.35938,-1.07812 -0.98437,-0.67188 -0.98437,-1.85938 0,-1.07812 0.84375,-1.8125 0.85937,-0.73437 2.64062,-0.73437 1.70313,0 2.53125,0.5625 0.82813,0.54687 1.14063,1.625 l -2.0625,0.39062 q -0.14063,-0.48437 -0.51563,-0.73437 -0.35937,-0.26563 -1.04687,-0.26563 -0.875,0 -1.25,0.23438 -0.25,0.17187 -0.25,0.45312 0,0.23438 0.21875,0.39063 0.29687,0.21875 2.04687,0.625 1.76563,0.39062 2.45313,0.96875 0.6875,0.59375 0.6875,1.64062 0,1.14063 -0.95313,1.96875 -0.95312,0.8125 -2.8125,0.8125 -1.70312,0 -2.6875,-0.6875 -0.98437,-0.6875 -1.29687,-1.875 z"
       id="path63"
       inkscape:connector-curvature="0"
       style="fill:#000000;fill-rule:nonzero" />
    <path
       d="m 469.2467,267.6168 h 130.64569 v 59.52756 H 469.2467 Z"
       id="path65"
       inkscape:connector-curvature="0"
       style="fill:#fff2cc;fill-rule:evenodd" />
    <path
       d="m 469.2467,267.6168 h 130.64569 v 59.52756 H 469.2467 Z"
       id="path67"
       inkscape:connector-curvature="0"
       style="fill-rule:evenodd;stroke:#000000;stroke-width:3;stroke-linecap:butt;stroke-linejoin:round" />
    <path
       d="m 479.41858,291.9768 v -11.45312 h 3.70313 q 2.10937,0 2.75,0.17187 0.98437,0.25 1.64062,1.125 0.67188,0.85938 0.67188,2.21875 0,1.0625 -0.39063,1.78125 -0.375,0.71875 -0.96875,1.125 -0.57812,0.40625 -1.1875,0.54688 -0.82812,0.15625 -2.40625,0.15625 h -1.5 v 4.32812 z m 2.3125,-9.51562 v 3.25 h 1.26563 q 1.35937,0 1.8125,-0.17188 0.46875,-0.1875 0.73437,-0.5625 0.26563,-0.39062 0.26563,-0.90625 0,-0.625 -0.375,-1.03125 -0.35938,-0.40625 -0.92188,-0.5 -0.42187,-0.0781 -1.67187,-0.0781 z m 10.4375,9.51562 h -2.1875 v -8.29687 h 2.03125 v 1.17187 q 0.53125,-0.82812 0.9375,-1.09375 0.42188,-0.26562 0.95313,-0.26562 0.75,0 1.45312,0.40625 l -0.6875,1.92187 q -0.54687,-0.35937 -1.03125,-0.35937 -0.45312,0 -0.78125,0.25 -0.3125,0.25 -0.5,0.92187 -0.1875,0.65625 -0.1875,2.78125 z m 3.61719,-4.26562 q 0,-1.09375 0.53125,-2.10938 0.54687,-1.03125 1.53125,-1.5625 1,-0.54687 2.21875,-0.54687 1.875,0 3.07812,1.21875 1.20313,1.21875 1.20313,3.09375 0,1.875 -1.21875,3.125 -1.20313,1.23437 -3.04688,1.23437 -1.14062,0 -2.1875,-0.51562 -1.03125,-0.51563 -1.57812,-1.51563 -0.53125,-1 -0.53125,-2.42187 z m 2.25,0.10937 q 0,1.23438 0.57812,1.89063 0.59375,0.65625 1.45313,0.65625 0.85937,0 1.4375,-0.65625 0.59375,-0.65625 0.59375,-1.90625 0,-1.21875 -0.59375,-1.875 -0.57813,-0.65625 -1.4375,-0.65625 -0.85938,0 -1.45313,0.65625 -0.57812,0.65625 -0.57812,1.89062 z m 15.27344,-1.6875 -2.17188,0.39063 q -0.10937,-0.65625 -0.5,-0.98438 -0.375,-0.32812 -1,-0.32812 -0.8125,0 -1.3125,0.57812 -0.48437,0.5625 -0.48437,1.89063 0,1.46875 0.5,2.07812 0.5,0.60938 1.32812,0.60938 0.625,0 1.01563,-0.34375 0.40625,-0.35938 0.57812,-1.23438 l 2.15625,0.375 q -0.34375,1.48438 -1.29687,2.25 -0.95313,0.75 -2.54688,0.75 -1.82812,0 -2.90625,-1.14062 -1.07812,-1.15625 -1.07812,-3.1875 0,-2.0625 1.07812,-3.20313 1.09375,-1.14062 2.9375,-1.14062 1.51563,0 2.40625,0.65625 0.90625,0.64062 1.29688,1.98437 z m 6.46093,3.20313 2.1875,0.35937 q -0.42187,1.20313 -1.32812,1.84375 -0.90625,0.625 -2.28125,0.625 -2.15625,0 -3.20313,-1.42187 -0.8125,-1.125 -0.8125,-2.85938 0,-2.0625 1.07813,-3.21875 1.07812,-1.17187 2.71875,-1.17187 1.85937,0 2.92187,1.21875 1.07813,1.21875 1.03125,3.75 h -5.5 q 0.0156,0.96875 0.51563,1.51562 0.51562,0.54688 1.28125,0.54688 0.51562,0 0.85937,-0.28125 0.35938,-0.28125 0.53125,-0.90625 z m 0.125,-2.21875 q -0.0156,-0.95313 -0.48437,-1.45313 -0.46875,-0.5 -1.14063,-0.5 -0.71875,0 -1.1875,0.53125 -0.46875,0.51563 -0.46875,1.42188 z m 11.58594,4.85937 h -2.04687 v -1.21875 q -0.5,0.70313 -1.20313,1.0625 -0.6875,0.34375 -1.39062,0.34375 -1.42188,0 -2.45313,-1.15625 -1.01562,-1.15625 -1.01562,-3.21875 0,-2.10937 0.98437,-3.20312 1,-1.09375 2.51563,-1.09375 1.39062,0 2.40625,1.15625 v -4.125 h 2.20312 z m -5.85937,-4.32812 q 0,1.32812 0.35937,1.92187 0.53125,0.85938 1.48438,0.85938 0.76562,0 1.29687,-0.64063 0.53125,-0.65625 0.53125,-1.9375 0,-1.42187 -0.51562,-2.04687 -0.51563,-0.64063 -1.32813,-0.64063 -0.78125,0 -1.3125,0.625 -0.51562,0.625 -0.51562,1.85938 z m 13.47656,4.32812 v -1.25 q -0.45313,0.67188 -1.1875,1.0625 -0.73438,0.375 -1.5625,0.375 -0.82813,0 -1.5,-0.35937 -0.65625,-0.375 -0.95313,-1.03125 -0.29687,-0.67188 -0.29687,-1.84375 v -5.25 h 2.1875 v 3.8125 q 0,1.75 0.125,2.14062 0.125,0.39063 0.4375,0.625 0.32812,0.23438 0.8125,0.23438 0.5625,0 1,-0.3125 0.45312,-0.3125 0.60937,-0.76563 0.17188,-0.45312 0.17188,-2.23437 v -3.5 h 2.20312 v 8.29687 z m 6.41406,0 h -2.1875 v -8.29687 h 2.03125 v 1.17187 q 0.53125,-0.82812 0.9375,-1.09375 0.42188,-0.26562 0.95313,-0.26562 0.75,0 1.45312,0.40625 l -0.6875,1.92187 q -0.54687,-0.35937 -1.03125,-0.35937 -0.45312,0 -0.78125,0.25 -0.3125,0.25 -0.5,0.92187 -0.1875,0.65625 -0.1875,2.78125 z m 8.92969,-2.64062 2.1875,0.35937 q -0.42188,1.20313 -1.32813,1.84375 -0.90625,0.625 -2.28125,0.625 -2.15625,0 -3.20312,-1.42187 -0.8125,-1.125 -0.8125,-2.85938 0,-2.0625 1.07812,-3.21875 1.07813,-1.17187 2.71875,-1.17187 1.85938,0 2.92188,1.21875 1.07812,1.21875 1.03125,3.75 h -5.5 q 0.0156,0.96875 0.51562,1.51562 0.51563,0.54688 1.28125,0.54688 0.51563,0 0.85938,-0.28125 0.35937,-0.28125 0.53125,-0.90625 z m 0.125,-2.21875 q -0.0156,-0.95313 -0.48438,-1.45313 -0.46875,-0.5 -1.14062,-0.5 -0.71875,0 -1.1875,0.53125 -0.46875,0.51563 -0.46875,1.42188 z m 8.4375,-6.59375 h 4.57812 q 1.35938,0 2.03125,0.10937 0.67188,0.10938 1.1875,0.46875 0.53125,0.35938 0.875,0.96875 0.35938,0.59375 0.35938,1.32813 0,0.8125 -0.4375,1.48437 -0.42188,0.67188 -1.17188,1 1.04688,0.3125 1.60938,1.04688 0.5625,0.73437 0.5625,1.71875 0,0.78125 -0.35938,1.53125 -0.35937,0.73437 -1,1.17187 -0.625,0.4375 -1.54687,0.54688 -0.57813,0.0625 -2.78125,0.0781 h -3.90625 z m 2.3125,1.90625 v 2.64062 h 1.51562 q 1.35938,0 1.6875,-0.0312 0.59375,-0.0781 0.92188,-0.40625 0.34375,-0.34375 0.34375,-0.90625 0,-0.53125 -0.29688,-0.85937 -0.28125,-0.32813 -0.85937,-0.40625 -0.34375,-0.0312 -1.98438,-0.0312 z m 0,4.54687 v 3.0625 h 2.14062 q 1.25,0 1.59375,-0.0625 0.51563,-0.0937 0.82813,-0.45312 0.32812,-0.375 0.32812,-0.98438 0,-0.51562 -0.25,-0.875 -0.25,-0.35937 -0.71875,-0.51562 -0.46875,-0.17188 -2.04687,-0.17188 z"
       id="path69"
       inkscape:connector-curvature="0"
       style="fill:#000000;fill-rule:nonzero" />
    <path
       d="m 469.2467,198.25197 h 130.64569 v 59.52757 H 469.2467 Z"
       id="path71"
       inkscape:connector-curvature="0"
       style="fill:#f4cccc;fill-rule:evenodd" />
    <path
       d="m 469.2467,198.25197 h 130.64569 v 59.52757 H 469.2467 Z"
       id="path73"
       inkscape:connector-curvature="0"
       style="fill-rule:evenodd;stroke:#000000;stroke-width:3;stroke-linecap:butt;stroke-linejoin:round" />
    <path
       d="m 479.41858,222.61197 v -11.45312 h 3.70313 q 2.10937,0 2.75,0.17187 0.98437,0.25 1.64062,1.125 0.67188,0.85938 0.67188,2.21875 0,1.0625 -0.39063,1.78125 -0.375,0.71875 -0.96875,1.125 -0.57812,0.40625 -1.1875,0.54688 -0.82812,0.15625 -2.40625,0.15625 h -1.5 v 4.32812 z m 2.3125,-9.51562 v 3.25 h 1.26563 q 1.35937,0 1.8125,-0.17188 0.46875,-0.1875 0.73437,-0.5625 0.26563,-0.39062 0.26563,-0.90625 0,-0.625 -0.375,-1.03125 -0.35938,-0.40625 -0.92188,-0.5 -0.42187,-0.0781 -1.67187,-0.0781 z m 10.4375,9.51562 h -2.1875 v -8.29687 h 2.03125 v 1.17187 q 0.53125,-0.82812 0.9375,-1.09375 0.42188,-0.26562 0.95313,-0.26562 0.75,0 1.45312,0.40625 l -0.6875,1.92187 q -0.54687,-0.35937 -1.03125,-0.35937 -0.45312,0 -0.78125,0.25 -0.3125,0.25 -0.5,0.92187 -0.1875,0.65625 -0.1875,2.78125 z m 3.61719,-4.26562 q 0,-1.09375 0.53125,-2.10938 0.54687,-1.03125 1.53125,-1.5625 1,-0.54687 2.21875,-0.54687 1.875,0 3.07812,1.21875 1.20313,1.21875 1.20313,3.09375 0,1.875 -1.21875,3.125 -1.20313,1.23437 -3.04688,1.23437 -1.14062,0 -2.1875,-0.51562 -1.03125,-0.51563 -1.57812,-1.51563 -0.53125,-1 -0.53125,-2.42187 z m 2.25,0.10937 q 0,1.23438 0.57812,1.89063 0.59375,0.65625 1.45313,0.65625 0.85937,0 1.4375,-0.65625 0.59375,-0.65625 0.59375,-1.90625 0,-1.21875 -0.59375,-1.875 -0.57813,-0.65625 -1.4375,-0.65625 -0.85938,0 -1.45313,0.65625 -0.57812,0.65625 -0.57812,1.89062 z m 15.27344,-1.6875 -2.17188,0.39063 q -0.10937,-0.65625 -0.5,-0.98438 -0.375,-0.32812 -1,-0.32812 -0.8125,0 -1.3125,0.57812 -0.48437,0.5625 -0.48437,1.89063 0,1.46875 0.5,2.07812 0.5,0.60938 1.32812,0.60938 0.625,0 1.01563,-0.34375 0.40625,-0.35938 0.57812,-1.23438 l 2.15625,0.375 q -0.34375,1.48438 -1.29687,2.25 -0.95313,0.75 -2.54688,0.75 -1.82812,0 -2.90625,-1.14062 -1.07812,-1.15625 -1.07812,-3.1875 0,-2.0625 1.07812,-3.20313 1.09375,-1.14062 2.9375,-1.14062 1.51563,0 2.40625,0.65625 0.90625,0.64062 1.29688,1.98437 z m 6.46093,3.20313 2.1875,0.35937 q -0.42187,1.20313 -1.32812,1.84375 -0.90625,0.625 -2.28125,0.625 -2.15625,0 -3.20313,-1.42187 -0.8125,-1.125 -0.8125,-2.85938 0,-2.0625 1.07813,-3.21875 1.07812,-1.17187 2.71875,-1.17187 1.85937,0 2.92187,1.21875 1.07813,1.21875 1.03125,3.75 h -5.5 q 0.0156,0.96875 0.51563,1.51562 0.51562,0.54688 1.28125,0.54688 0.51562,0 0.85937,-0.28125 0.35938,-0.28125 0.53125,-0.90625 z m 0.125,-2.21875 q -0.0156,-0.95313 -0.48437,-1.45313 -0.46875,-0.5 -1.14063,-0.5 -0.71875,0 -1.1875,0.53125 -0.46875,0.51563 -0.46875,1.42188 z m 11.58594,4.85937 h -2.04687 v -1.21875 q -0.5,0.70313 -1.20313,1.0625 -0.6875,0.34375 -1.39062,0.34375 -1.42188,0 -2.45313,-1.15625 -1.01562,-1.15625 -1.01562,-3.21875 0,-2.10937 0.98437,-3.20312 1,-1.09375 2.51563,-1.09375 1.39062,0 2.40625,1.15625 v -4.125 h 2.20312 z m -5.85937,-4.32812 q 0,1.32812 0.35937,1.92187 0.53125,0.85938 1.48438,0.85938 0.76562,0 1.29687,-0.64063 0.53125,-0.65625 0.53125,-1.9375 0,-1.42187 -0.51562,-2.04687 -0.51563,-0.64063 -1.32813,-0.64063 -0.78125,0 -1.3125,0.625 -0.51562,0.625 -0.51562,1.85938 z m 13.47656,4.32812 v -1.25 q -0.45313,0.67188 -1.1875,1.0625 -0.73438,0.375 -1.5625,0.375 -0.82813,0 -1.5,-0.35937 -0.65625,-0.375 -0.95313,-1.03125 -0.29687,-0.67188 -0.29687,-1.84375 v -5.25 h 2.1875 v 3.8125 q 0,1.75 0.125,2.14062 0.125,0.39063 0.4375,0.625 0.32812,0.23438 0.8125,0.23438 0.5625,0 1,-0.3125 0.45312,-0.3125 0.60937,-0.76563 0.17188,-0.45312 0.17188,-2.23437 v -3.5 h 2.20312 v 8.29687 z m 6.41406,0 h -2.1875 v -8.29687 h 2.03125 v 1.17187 q 0.53125,-0.82812 0.9375,-1.09375 0.42188,-0.26562 0.95313,-0.26562 0.75,0 1.45312,0.40625 l -0.6875,1.92187 q -0.54687,-0.35937 -1.03125,-0.35937 -0.45312,0 -0.78125,0.25 -0.3125,0.25 -0.5,0.92187 -0.1875,0.65625 -0.1875,2.78125 z m 8.92969,-2.64062 2.1875,0.35937 q -0.42188,1.20313 -1.32813,1.84375 -0.90625,0.625 -2.28125,0.625 -2.15625,0 -3.20312,-1.42187 -0.8125,-1.125 -0.8125,-2.85938 0,-2.0625 1.07812,-3.21875 1.07813,-1.17187 2.71875,-1.17187 1.85938,0 2.92188,1.21875 1.07812,1.21875 1.03125,3.75 h -5.5 q 0.0156,0.96875 0.51562,1.51562 0.51563,0.54688 1.28125,0.54688 0.51563,0 0.85938,-0.28125 0.35937,-0.28125 0.53125,-0.90625 z m 0.125,-2.21875 q -0.0156,-0.95313 -0.48438,-1.45313 -0.46875,-0.5 -1.14062,-0.5 -0.71875,0 -1.1875,0.53125 -0.46875,0.51563 -0.46875,1.42188 z m 18.76562,4.85937 h -2.51562 l -1,-2.60937 h -4.57813 l -0.95312,2.60937 h -2.45313 l 4.46875,-11.45312 h 2.4375 z m -4.26562,-4.53125 -1.57813,-4.25 -1.54687,4.25 z"
       id="path75"
       inkscape:connector-curvature="0"
       style="fill:#000000;fill-rule:nonzero" />
    <path
       d="m 402.9993,228.01575 h 57.00787"
       id="path77"
       inkscape:connector-curvature="0"
       style="fill:#000000;fill-opacity:0;fill-rule:evenodd" />
    <path
       d="m 402.9993,228.01575 h 45.00787"
       id="path79"
       inkscape:connector-curvature="0"
       style="fill-rule:evenodd;stroke:#000000;stroke-width:2;stroke-linecap:butt;stroke-linejoin:round" />
    <path
       d="m 448.00717,231.31921 9.0762,-3.30347 -9.0762,-3.30346 z"
       id="path81"
       inkscape:connector-curvature="0"
       style="fill:#000000;fill-rule:evenodd;stroke:#000000;stroke-width:2;stroke-linecap:butt" />
    <path
       d="m 402.99738,297.38846 h 57.00787"
       id="path83"
       inkscape:connector-curvature="0"
       style="fill:#000000;fill-opacity:0;fill-rule:evenodd" />
    <path
       d="m 402.99738,297.38846 h 45.00787"
       id="path85"
       inkscape:connector-curvature="0"
       style="fill-rule:evenodd;stroke:#000000;stroke-width:2;stroke-linecap:butt;stroke-linejoin:round" />
    <path
       d="m 448.00525,300.69193 9.0762,-3.30347 -9.0762,-3.30346 z"
       id="path87"
       inkscape:connector-curvature="0"
       style="fill:#000000;fill-rule:evenodd;stroke:#000000;stroke-width:2;stroke-linecap:butt" />
    <path
       d="m 402.9995,228.01575 57.00787,59.37009"
       id="path89"
       inkscape:connector-curvature="0"
       style="fill:#000000;fill-opacity:0;fill-rule:evenodd" />
    <path
       d="m 402.9995,228.01575 48.69653,50.71435"
       id="path91"
       inkscape:connector-curvature="0"
       style="fill-rule:evenodd;stroke:#000000;stroke-width:2;stroke-linecap:butt;stroke-linejoin:round" />
    <path
       d="m 449.31323,281.01813 8.6691,4.25873 -3.90348,-8.83478 z"
       id="path93"
       inkscape:connector-curvature="0"
       style="fill:#000000;fill-rule:evenodd;stroke:#000000;stroke-width:2;stroke-linecap:butt" />
  </g>
</svg>
